<svg id="аудиосистема" xmlns="http://www.w3.org/2000/svg" viewBox="0 0 231.11 24.75"><path d="M398.15,114.79a4.56,4.56,0,0,0,0-2.43,3.61,3.61,0,0,1-.06-1.31.87.87,0,0,1,.2-.47c.2-.17.66-.1.93-.1a67.19,67.19,0,0,1,8.74.48,1.68,1.68,0,0,0,1-.28c.23-.16.2-.28-.08-.32-1.72-.2-3.45-.34-5.18-.42-.86,0-1.73,0-2.59-.06a16.27,16.27,0,0,0-2.42.08c-1.15.17-2.12.68-2.1,1.94,0,1,.56,2.18.16,3.15-.11.24,1.27.12,1.42-.26Z" transform="translate(-185.6 -104.12)"/><path d="M397.14,115.18a3.48,3.48,0,0,0,1.84,0,15.81,15.81,0,0,1,2.84-.15,42.92,42.92,0,0,1,6.1.41,2.94,2.94,0,0,1,2,1.48c.52.68,1.07,1.34,1.64,2a33.7,33.7,0,0,0,3.84,3.62c.52.42,1.77-.32,1.11-.85a31.76,31.76,0,0,1-4-3.9c-1-1.14-1.79-2.86-3.34-3.27a25.2,25.2,0,0,0-5.56-.53c-1,0-1.92,0-2.89,0a9.91,9.91,0,0,0-1.33.09,2.71,2.71,0,0,1-1.38.09c-.64-.22-1.7.69-.83,1Z" transform="translate(-185.6 -104.12)"/><path d="M396.72,115a12.33,12.33,0,0,1-5.72,6c-.22.11-.42.39-.14.54a1.25,1.25,0,0,0,1-.14,13.41,13.41,0,0,0,6.27-6.64c.13-.3-.48-.31-.62-.29a1,1,0,0,0-.82.48Z" transform="translate(-185.6 -104.12)"/><path d="M391.47,122a95.17,95.17,0,0,0,23.3.8c.81-.07,1.12-1.14.13-1.06A93.54,93.54,0,0,1,392,120.9c-.72-.11-1.48.9-.51,1Z" transform="translate(-185.6 -104.12)"/><path d="M407.7,110.91a1.92,1.92,0,0,1,.45.94,7.43,7.43,0,0,1,.22,1.32c.07.75.05,1.51.15,2.25,0,.22.67.06.78,0s.7-.18.67-.42c-.11-.76-.08-1.54-.16-2.3a3.8,3.8,0,0,0-.74-2.32c-.07-.07-.3,0-.37,0a1.76,1.76,0,0,0-.56.13c-.12,0-.61.22-.44.41Z" transform="translate(-185.6 -104.12)"/><path d="M396.16,123.55c-.79.55-1.56,1.14-2.3,1.77a.13.13,0,0,0,0,.2.6.6,0,0,0,.37.06,1.76,1.76,0,0,0,1-.35l.53-.44.12-.1h0l.07,0,.27-.22c.36-.27.73-.54,1.11-.8.05,0,.19-.13.16-.23s-.19-.11-.26-.11a1.76,1.76,0,0,0-1,.27Z" transform="translate(-185.6 -104.12)"/><path d="M410.7,124.14a3.36,3.36,0,0,0,.86,1.12,10.38,10.38,0,0,0,1.07.92.66.66,0,0,0,.39.14,1.35,1.35,0,0,0,.57-.11.89.89,0,0,0,.39-.3c0-.08.09-.23,0-.31a9.56,9.56,0,0,1-1-.83,4.47,4.47,0,0,1-.81-.93l.05.09a1.42,1.42,0,0,1-.08-.18c-.11-.3-.59-.26-.83-.19a1.11,1.11,0,0,0-.48.25c-.08.08-.19.2-.14.33Z" transform="translate(-185.6 -104.12)"/><path d="M402.74,124.18c0,.73,0,1.46,0,2.19,0,.11.2.18.28.2a1.23,1.23,0,0,0,.54,0c.25-.07.65-.23.63-.55s0-.92,0-1.39v.1c0-.23,0-.46,0-.69a.24.24,0,0,0-.15-.26,1,1,0,0,0-.48,0,1.33,1.33,0,0,0-.54.18c-.1.06-.28.18-.28.3Z" transform="translate(-185.6 -104.12)"/><path d="M216,115a4.9,4.9,0,0,0,0-2.63,3.24,3.24,0,0,1,0-1.24c.13-.5.66-.42,1.08-.43a67.53,67.53,0,0,1,9,.47,1,1,0,0,0,.94-.43c.16-.33-.13-.54-.43-.57-1.72-.21-3.44-.35-5.17-.42q-1.24-.06-2.49-.06a17.19,17.19,0,0,0-2.38,0,2.05,2.05,0,0,0-2,2.11,14.75,14.75,0,0,0,.2,1.61,2.7,2.7,0,0,1,0,1.41c-.31.74,1.14.7,1.38.14Z" transform="translate(-185.6 -104.12)"/><path d="M214.78,115a3.5,3.5,0,0,0,1.76.06,17.11,17.11,0,0,1,2.86-.18,43.35,43.35,0,0,1,6.13.42c1.71.27,2.56,2.14,3.63,3.35a31.9,31.9,0,0,0,4,3.76c.35.29,1.67-.27,1.35-.53a32.57,32.57,0,0,1-3.94-3.76c-.6-.68-1.16-1.39-1.71-2.11a3,3,0,0,0-1.69-1.28,25.65,25.65,0,0,0-5.32-.51q-1.53-.06-3.06,0a10.86,10.86,0,0,0-1.28.07,3.07,3.07,0,0,1-1.5.1c-.38-.13-1.7.45-1.18.64Z" transform="translate(-185.6 -104.12)"/><path d="M214.54,115a12.33,12.33,0,0,1-5.7,6.11c-.15.08-.47.29-.17.4a1.56,1.56,0,0,0,1-.18A13.39,13.39,0,0,0,216,114.8c.11-.25-.49-.18-.58-.16s-.73.14-.85.4Z" transform="translate(-185.6 -104.12)"/><path d="M209.11,121.85a96.38,96.38,0,0,0,23.45.81c.74-.07,1.18-1,.18-.87A93.24,93.24,0,0,1,210,121c-.5-.08-1.71.71-.87.84Z" transform="translate(-185.6 -104.12)"/><path d="M225.52,110.91a2,2,0,0,1,.45.94,7.43,7.43,0,0,1,.22,1.32c.07.75,0,1.51.15,2.25,0,.31,1.5,0,1.45-.39-.11-.76-.08-1.54-.16-2.3a3.87,3.87,0,0,0-.74-2.32c-.07-.07-.29-.06-.37-.06a2.24,2.24,0,0,0-.57.13c-.12,0-.61.24-.43.43Z" transform="translate(-185.6 -104.12)"/><path d="M278.82,116l-24,.37c-3.72.06-7.48-.07-11.19.23a4.4,4.4,0,0,0-2.8.86c-.64.71-.33,2.15-.12,3a7.75,7.75,0,0,0,.81,1.92,6.11,6.11,0,0,0,1.6,2.17,2.78,2.78,0,0,0,1.38.13l3.49,0,12,0,23.41.08q47.33.14,94.64,0c1.65,0,5.36.45,6-1.62a19.07,19.07,0,0,0,.37-2.73,11.55,11.55,0,0,0,.33-2.47,1.18,1.18,0,0,0-1-1,13.71,13.71,0,0,0-2.56-.09c-4.62-.09-9.24-.14-13.85-.19q-22.67-.24-45.34-.41c-10.34-.09-20.68-.14-31-.26h-.62c-.56,0-1.54.79-.57.82,8.09.29,16.21.14,24.3.21q22.1.18,44.19.39,8.57.07,17.15.19l5.28.08,1.59,0a3.54,3.54,0,0,1,.46,0c.16,0,.27.08.11,0,.91.47.17,2.65,0,3.54a7.31,7.31,0,0,1-.31,2.22c-.38.59-2,.43-2.63.44-3.76.07-7.52,0-11.28,0l-22.41,0q-22.66,0-45.33,0-22.41,0-44.83-.14l-5.48,0-2.73,0h-1.25a7.79,7.79,0,0,1-2,0c-1.33-.49-2.24-2.9-2.49-4.15-.09-.45-.34-1.52-.09-1.89.4-.6,2.06-.43,2.66-.44,7.53-.18,15.06-.24,22.59-.36l11-.17c.54,0,1.54-.84.56-.82Z" transform="translate(-185.6 -104.12)"/><path d="M258.83,115c2.53-.63,4.61-2.37,6.81-3.68,3.15-1.89,7.23-1.43,10.79-1.53,7.91-.23,15.83-.3,23.75-.28,15.44,0,30.88.37,46.32.45l6.48,0a33.57,33.57,0,0,1,6.18.19,15.2,15.2,0,0,1,8.49,5.42c.24.28,1.6-.22,1.36-.5a16.18,16.18,0,0,0-7.22-5.12c-3.27-1.07-7-.6-10.37-.61-8.14,0-16.28-.12-24.42-.22-16-.21-32-.42-48,0-2.32.06-4.65.13-7,.22a17.5,17.5,0,0,0-5,.66c-3,1-5.29,3.75-8.38,4.52-.85.21-.73.69.13.48Z" transform="translate(-185.6 -104.12)"/><path d="M214,123.52c-.76.53-1.49,1.09-2.19,1.69-.07.05-.19.15-.16.26s.18.13.26.14a1.63,1.63,0,0,0,.54,0,1.54,1.54,0,0,0,.49-.22c.7-.6,1.43-1.16,2.19-1.69.07-.05.19-.16.16-.26s-.18-.13-.27-.14a1.69,1.69,0,0,0-1,.27Z" transform="translate(-185.6 -104.12)"/><path d="M228.52,124.14a3.22,3.22,0,0,0,.85,1.09,10.38,10.38,0,0,0,1.07.92.63.63,0,0,0,.38.08,1.83,1.83,0,0,0,.56-.13.86.86,0,0,0,.4-.24c.05-.07.11-.16,0-.23a9.62,9.62,0,0,1-.92-.77,5.89,5.89,0,0,1-.79-.86l0,.07a1.41,1.41,0,0,1-.17-.32c0-.1-.18-.13-.27-.14a1.35,1.35,0,0,0-.53.06,1.45,1.45,0,0,0-.49.22c-.07,0-.2.15-.16.25Z" transform="translate(-185.6 -104.12)"/><path d="M220.55,124.14a20.82,20.82,0,0,0,0,2.09.45.45,0,0,0,.18.38.86.86,0,0,0,.5.12,1,1,0,0,0,.54-.2c.11-.1.26-.25.25-.4a20.82,20.82,0,0,1,0-2.09c0-.36-.36-.53-.68-.5a1,1,0,0,0-.54.2.58.58,0,0,0-.25.4Z" transform="translate(-185.6 -104.12)"/><path d="M198.89,109.71c-.25-1.4.14-2.78-.46-4.15s-2-1.32-3.28-1.39-2.75-.23-3.81.65-1,2.81-1,4.1a48.79,48.79,0,0,0,.37,10.6c.29,1.69,1.66,1.88,3.16,2a15,15,0,0,0,2.32,0,3,3,0,0,0,1.86-.49c.57-.5.49-1.49.56-2.19.11-1,.19-2,.24-3.07q.16-3,.06-6.1c0-.38-1.47-.12-1.45.39a65.34,65.34,0,0,1-.24,8.51c-.06.62-.09,1.27-.21,1.88-.06.31,0,.23-.24.33a3.24,3.24,0,0,1-1.08,0c-1.18,0-3.09.08-3.45-1.33a20.6,20.6,0,0,1-.41-3.84c-.09-1.39-.14-2.78-.13-4.17s.07-2.82.18-4.23a7,7,0,0,1,.22-1.58c.25-.78.82-.86,1.56-.83a8.43,8.43,0,0,1,2.51.22,1.86,1.86,0,0,1,1,1.4c.34,1.2.06,2.4.28,3.61.08.43,1.54.09,1.45-.39Z" transform="translate(-185.6 -104.12)"/><path d="M192.53,110.12c1.11,0,2.21,0,3.31-.13a1.6,1.6,0,0,0,1-.35c.22-.24-.2-.29-.35-.27-.52,0-1,.08-1.55.1l-.74,0h-.71a1.82,1.82,0,0,0-1,.27c-.07,0-.19.14-.16.24s.18.12.25.12Z" transform="translate(-185.6 -104.12)"/><path d="M193.52,113.29l2.84-.14c.28,0,.76-.2.82-.51s-.43-.35-.63-.34l-2.85.14c-.27,0-.76.19-.82.5s.43.36.64.35Z" transform="translate(-185.6 -104.12)"/><path d="M193.24,116.37a7.34,7.34,0,0,0,3.52-.84.8.8,0,0,0,.38-.3.27.27,0,0,0,0-.33.92.92,0,0,0-1,0,5.11,5.11,0,0,1-.67.31l-.15.06c.11,0,.12,0,0,0l-.1,0-.33.09-.18,0c-.05,0-.2.07,0,0a2.35,2.35,0,0,1-.37,0l-.37,0s-.21,0,0,0h-.21a1.41,1.41,0,0,0-.57.11.87.87,0,0,0-.38.3c-.15.29.13.48.41.48Z" transform="translate(-185.6 -104.12)"/><path d="M192.63,108h3a1.43,1.43,0,0,0,.57-.1.89.89,0,0,0,.38-.31c.14-.3-.13-.51-.42-.51h-2.94a1.38,1.38,0,0,0-.57.11.77.77,0,0,0-.38.31c-.15.3.12.5.41.5Z" transform="translate(-185.6 -104.12)"/><path d="M185.75,115.46a6.16,6.16,0,0,0,.88,4.53,8.18,8.18,0,0,0,4.68,3.86,10.52,10.52,0,0,0,4.22.19,9.16,9.16,0,0,0,4.21-1.24c2.49-1.59,3.66-4.36,4.39-7.1.15-.55-1.31-.34-1.45.17-.64,2.42-1.63,5.06-3.85,6.47a8.56,8.56,0,0,1-4.05.94,6.58,6.58,0,0,1-3.47-.6,7.81,7.81,0,0,1-3.54-3.66,5.46,5.46,0,0,1-.57-3.73c.17-.53-1.29-.34-1.45.17Z" transform="translate(-185.6 -104.12)"/><path d="M193.86,124.22a.71.71,0,0,1-.11.41,2.52,2.52,0,0,1-.28.48,10.24,10.24,0,0,1-1.09,1.28,10.64,10.64,0,0,1-1.14,1l-.29.2c-.1.07.08,0,0,0l-.11.07-.23.11c.05,0,.16-.06,0,0s.2,0,.08,0l-.11,1.13c1.46-.1,2.92-.13,4.39-.15.82,0,1.65,0,2.47,0l.77,0,.3,0c.19,0-.12-.07,0,0,.64.3,1.67-.62.83-1a4.37,4.37,0,0,0-1.57-.18c-.85,0-1.69,0-2.54,0-1.53,0-3.06,0-4.58.14-.33,0-.76.24-.79.61s.37.53.68.52a3,3,0,0,0,1.41-.62,11,11,0,0,0,1.42-1.22,10,10,0,0,0,1.28-1.47,2.89,2.89,0,0,0,.62-1.42c0-.79-1.45-.6-1.48.09Z" transform="translate(-185.6 -104.12)"/><path d="M350.7,119.45l4,0a24.68,24.68,0,0,1,3.94.12c.95.17,1.79.66,2.75.8a24.22,24.22,0,0,0,3.51.1l15.34,0c.56,0,1.53-.85.55-.85l-15.33,0a13.33,13.33,0,0,1-4.32-.32,9.53,9.53,0,0,0-2.18-.61c-2.52-.26-5.14-.11-7.68-.14-.56,0-1.53.83-.56.85Z" transform="translate(-185.6 -104.12)"/><path d="M398.67,112.18a11.76,11.76,0,0,0,4.49-.39c.18-.05.72-.22.65-.49s-.65-.15-.81-.11l-.46.13-.13,0-.22,0-.44.07-.22,0h-.15a9,9,0,0,1-1.8,0,1.51,1.51,0,0,0-1,.28c-.22.17-.19.39.12.42Z" transform="translate(-185.6 -104.12)"/><path d="M216.16,111.84l3.24.4a1.25,1.25,0,0,0,1-.27c.08-.08.18-.19.14-.32a.35.35,0,0,0-.28-.2l-3.23-.4a1.31,1.31,0,0,0-1,.27c-.08.09-.17.19-.14.32a.32.32,0,0,0,.28.2Z" transform="translate(-185.6 -104.12)"/></svg>