<svg id="аудиосистема" xmlns="http://www.w3.org/2000/svg" viewBox="0 0 48.92 24.75"><path d="M216,115a4.9,4.9,0,0,0,0-2.63,3.24,3.24,0,0,1,0-1.24c.13-.5.66-.42,1.08-.43a67.53,67.53,0,0,1,9,.47,1,1,0,0,0,.94-.43c.16-.33-.13-.54-.43-.57-1.72-.21-3.44-.35-5.17-.42q-1.24-.06-2.49-.06a17.19,17.19,0,0,0-2.38,0,2.05,2.05,0,0,0-2,2.11,14.75,14.75,0,0,0,.2,1.61,2.7,2.7,0,0,1,0,1.41c-.31.74,1.14.7,1.38.14Z" transform="translate(-185.6 -104.12)"/><path d="M214.78,115a3.5,3.5,0,0,0,1.76.06,17.11,17.11,0,0,1,2.86-.18,43.35,43.35,0,0,1,6.13.42c1.71.27,2.56,2.14,3.63,3.35a31.9,31.9,0,0,0,4,3.76c.35.29,1.67-.27,1.35-.53a32.57,32.57,0,0,1-3.94-3.76c-.6-.68-1.16-1.39-1.71-2.11a3,3,0,0,0-1.69-1.28,25.65,25.65,0,0,0-5.32-.51q-1.53-.06-3.06,0a10.86,10.86,0,0,0-1.28.07,3.07,3.07,0,0,1-1.5.1c-.38-.13-1.7.45-1.18.64Z" transform="translate(-185.6 -104.12)"/><path d="M214.54,115a12.33,12.33,0,0,1-5.7,6.11c-.15.08-.47.29-.17.4a1.56,1.56,0,0,0,1-.18A13.39,13.39,0,0,0,216,114.8c.11-.25-.49-.18-.58-.16s-.73.14-.85.4Z" transform="translate(-185.6 -104.12)"/><path d="M209.11,121.85a96.38,96.38,0,0,0,23.45.81c.74-.07,1.18-1,.18-.87A93.24,93.24,0,0,1,210,121c-.5-.08-1.71.71-.87.84Z" transform="translate(-185.6 -104.12)"/><path d="M225.52,110.91a2,2,0,0,1,.45.94,7.43,7.43,0,0,1,.22,1.32c.07.75,0,1.51.15,2.25,0,.31,1.5,0,1.45-.39-.11-.76-.08-1.54-.16-2.3a3.87,3.87,0,0,0-.74-2.32c-.07-.07-.29-.06-.37-.06a2.24,2.24,0,0,0-.57.13c-.12,0-.61.24-.43.43Z" transform="translate(-185.6 -104.12)"/><path d="M214,123.52c-.76.53-1.49,1.09-2.19,1.69-.07.05-.19.15-.16.26s.18.13.26.14a1.63,1.63,0,0,0,.54,0,1.54,1.54,0,0,0,.49-.22c.7-.6,1.43-1.16,2.19-1.69.07-.05.19-.16.16-.26s-.18-.13-.27-.14a1.69,1.69,0,0,0-1,.27Z" transform="translate(-185.6 -104.12)"/><path d="M228.52,124.14a3.22,3.22,0,0,0,.85,1.09,10.38,10.38,0,0,0,1.07.92.63.63,0,0,0,.38.08,1.83,1.83,0,0,0,.56-.13.86.86,0,0,0,.4-.24c.05-.07.11-.16,0-.23a9.62,9.62,0,0,1-.92-.77,5.89,5.89,0,0,1-.79-.86l0,.07a1.41,1.41,0,0,1-.17-.32c0-.1-.18-.13-.27-.14a1.35,1.35,0,0,0-.53.06,1.45,1.45,0,0,0-.49.22c-.07,0-.2.15-.16.25Z" transform="translate(-185.6 -104.12)"/><path d="M220.55,124.14a20.82,20.82,0,0,0,0,2.09.45.45,0,0,0,.18.38.86.86,0,0,0,.5.12,1,1,0,0,0,.54-.2c.11-.1.26-.25.25-.4a20.82,20.82,0,0,1,0-2.09c0-.36-.36-.53-.68-.5a1,1,0,0,0-.54.2.58.58,0,0,0-.25.4Z" transform="translate(-185.6 -104.12)"/><path d="M198.89,109.71c-.25-1.4.14-2.78-.46-4.15s-2-1.32-3.28-1.39-2.75-.23-3.81.65-1,2.81-1,4.1a48.79,48.79,0,0,0,.37,10.6c.29,1.69,1.66,1.88,3.16,2a15,15,0,0,0,2.32,0,3,3,0,0,0,1.86-.49c.57-.5.49-1.49.56-2.19.11-1,.19-2,.24-3.07q.16-3,.06-6.1c0-.38-1.47-.12-1.45.39a65.34,65.34,0,0,1-.24,8.51c-.06.62-.09,1.27-.21,1.88-.06.31,0,.23-.24.33a3.24,3.24,0,0,1-1.08,0c-1.18,0-3.09.08-3.45-1.33a20.6,20.6,0,0,1-.41-3.84c-.09-1.39-.14-2.78-.13-4.17s.07-2.82.18-4.23a7,7,0,0,1,.22-1.58c.25-.78.82-.86,1.56-.83a8.43,8.43,0,0,1,2.51.22,1.86,1.86,0,0,1,1,1.4c.34,1.2.06,2.4.28,3.61.08.43,1.54.09,1.45-.39Z" transform="translate(-185.6 -104.12)"/><path d="M192.53,110.12c1.11,0,2.21,0,3.31-.13a1.6,1.6,0,0,0,1-.35c.22-.24-.2-.29-.35-.27-.52,0-1,.08-1.55.1l-.74,0h-.71a1.82,1.82,0,0,0-1,.27c-.07,0-.19.14-.16.24s.18.12.25.12Z" transform="translate(-185.6 -104.12)"/><path d="M193.52,113.29l2.84-.14c.28,0,.76-.2.82-.51s-.43-.35-.63-.34l-2.85.14c-.27,0-.76.19-.82.5s.43.36.64.35Z" transform="translate(-185.6 -104.12)"/><path d="M193.24,116.37a7.34,7.34,0,0,0,3.52-.84.8.8,0,0,0,.38-.3.27.27,0,0,0,0-.33.92.92,0,0,0-1,0,5.11,5.11,0,0,1-.67.31l-.15.06c.11,0,.12,0,0,0l-.1,0-.33.09-.18,0c-.05,0-.2.07,0,0a2.35,2.35,0,0,1-.37,0l-.37,0s-.21,0,0,0h-.21a1.41,1.41,0,0,0-.57.11.87.87,0,0,0-.38.3c-.15.29.13.48.41.48Z" transform="translate(-185.6 -104.12)"/><path d="M192.63,108h3a1.43,1.43,0,0,0,.57-.1.89.89,0,0,0,.38-.31c.14-.3-.13-.51-.42-.51h-2.94a1.38,1.38,0,0,0-.57.11.77.77,0,0,0-.38.31c-.15.3.12.5.41.5Z" transform="translate(-185.6 -104.12)"/><path d="M185.75,115.46a6.16,6.16,0,0,0,.88,4.53,8.18,8.18,0,0,0,4.68,3.86,10.52,10.52,0,0,0,4.22.19,9.16,9.16,0,0,0,4.21-1.24c2.49-1.59,3.66-4.36,4.39-7.1.15-.55-1.31-.34-1.45.17-.64,2.42-1.63,5.06-3.85,6.47a8.56,8.56,0,0,1-4.05.94,6.58,6.58,0,0,1-3.47-.6,7.81,7.81,0,0,1-3.54-3.66,5.46,5.46,0,0,1-.57-3.73c.17-.53-1.29-.34-1.45.17Z" transform="translate(-185.6 -104.12)"/><path d="M193.86,124.22a.71.71,0,0,1-.11.41,2.52,2.52,0,0,1-.28.48,10.24,10.24,0,0,1-1.09,1.28,10.64,10.64,0,0,1-1.14,1l-.29.2c-.1.07.08,0,0,0l-.11.07-.23.11c.05,0,.16-.06,0,0s.2,0,.08,0l-.11,1.13c1.46-.1,2.92-.13,4.39-.15.82,0,1.65,0,2.47,0l.77,0,.3,0c.19,0-.12-.07,0,0,.64.3,1.67-.62.83-1a4.37,4.37,0,0,0-1.57-.18c-.85,0-1.69,0-2.54,0-1.53,0-3.06,0-4.58.14-.33,0-.76.24-.79.61s.37.53.68.52a3,3,0,0,0,1.41-.62,11,11,0,0,0,1.42-1.22,10,10,0,0,0,1.28-1.47,2.89,2.89,0,0,0,.62-1.42c0-.79-1.45-.6-1.48.09Z" transform="translate(-185.6 -104.12)"/><path d="M216.16,111.84l3.24.4a1.25,1.25,0,0,0,1-.27c.08-.08.18-.19.14-.32a.35.35,0,0,0-.28-.2l-3.23-.4a1.31,1.31,0,0,0-1,.27c-.08.09-.17.19-.14.32a.32.32,0,0,0,.28.2Z" transform="translate(-185.6 -104.12)"/></svg>