<svg id="стул" xmlns="http://www.w3.org/2000/svg" viewBox="0 0 53.67 40.9"><path d="M136.58,25.76q-12.21-.24-24.43.09-6,.16-12,.47c-1.15.05-3-.21-4,.59s-.53,2.57-.52,3.57c0,3.88.1,7.75.31,11.62q.15,2.9.43,5.78c.17,1.76.14,3.95.82,5.59.53,1.26,2.08,1.78,3.3,2.09a18.39,18.39,0,0,0,4.91.4c3.9-.08,7.79-.23,11.68-.35l11.81-.35c2-.06,3.94-.09,5.91-.18a4.93,4.93,0,0,0,3.2-1c2.24-2,2-6,2-8.72-.11-4.05-.24-8.1-.36-12.15l-.07-2.44a11.91,11.91,0,0,0-.09-2.93c-.43-1.22-.58-.34.07-.59a6.72,6.72,0,0,1,.8-.1,5.07,5.07,0,0,0,1.55-.61,6,6,0,0,0,2.35-6.87,6.52,6.52,0,0,0-5.9-4.52,108.63,108.63,0,0,0-11.41.22q-13.45.43-26.88,1.42c-2,.15-4.21,0-6.08.62A3.83,3.83,0,0,0,91.52,20c-.83,2.22-1.62,7.72,2.25,7.42.44,0,1.56-.76.6-.68-1.64.12-2.17-2.13-2.16-3.35a8.79,8.79,0,0,1,1.36-4.82c1-1.18,4-.9,5.37-1l5.22-.37q10.32-.68,20.65-1,5-.18,10-.27c1.61,0,3.37-.19,4.87.52a6.19,6.19,0,0,1,2.87,3c1.17,2.6.46,6.77-2.83,7.17-.54.06-1.32.08-1.61.66A4.07,4.07,0,0,0,138,29l.08,2.69.3,10.24c.1,3.15.53,6.57-.34,9.65a5.93,5.93,0,0,1-.86,2c-.72.93-1.75.85-2.77.89l-5.42.16-10.34.31-9.84.3c-1.59,0-3.19.15-4.78.06s-3.75-.31-4.92-1.47c-1-1-.94-3.06-1.09-4.38-.2-1.67-.36-3.36-.48-5-.24-3.3-.35-6.61-.41-9.92,0-1.93-.08-3.87-.07-5.81a3.85,3.85,0,0,1,0-1c.18-.62.68-.53,1.25-.56l2.74-.14q5.73-.27,11.46-.41,11.72-.3,23.43-.06c.46,0,1.57-.67.6-.69Z" transform="translate(-90.84 -15.07)"/></svg>