<svg id="кофемашинка" xmlns="http://www.w3.org/2000/svg" viewBox="0 0 32.71 45.22"><path d="M498,50.71c0-.33.2-.62.25-1a4.18,4.18,0,0,1,.91-1.63,6.83,6.83,0,0,1,1.16-1.3,3.73,3.73,0,0,1,1.54-.54,4.7,4.7,0,0,1,3.45.64,4.56,4.56,0,0,1,1.14,1,6.39,6.39,0,0,1,1.13,1.62,6,6,0,0,1-1.07,5.75,4.53,4.53,0,0,1-2.95,1.56,4.9,4.9,0,0,1-2.86-.73,5.93,5.93,0,0,1-2.7-5.41c0-.48-1.41-.18-1.44.23a7.06,7.06,0,0,0,.57,3.17,5.48,5.48,0,0,0,2.29,2.58,6.91,6.91,0,0,0,7.51-.56,6.29,6.29,0,0,0,2.21-3.38,6.4,6.4,0,0,0,.23-1.94,10.55,10.55,0,0,0-.27-1.36,4.3,4.3,0,0,0-.94-1.61,6.22,6.22,0,0,0-1.57-1.5,6.06,6.06,0,0,0-3.93-.8,15,15,0,0,0-2.32.53,4.08,4.08,0,0,0-1.86,1.28,11.45,11.45,0,0,0-1.39,1.92,4.09,4.09,0,0,0-.3,1,2.94,2.94,0,0,0-.23.67c0,.48,1.42.18,1.44-.23Z" transform="translate(-486.68 -15.57)"/><path d="M496.93,28.86c0-.51.25-.93.31-1.43a8.81,8.81,0,0,1,1.06-3,15,15,0,0,1,1.59-2.64,4.47,4.47,0,0,1,2.31-1.36,5.1,5.1,0,0,1,5.23,1.62A10.35,10.35,0,0,1,509,24.42,7.85,7.85,0,0,1,510.06,27a15.09,15.09,0,0,1,.31,4.24,15.8,15.8,0,0,1-1.44,5.35c-.87,1.76-2.4,3.5-4.44,3.84-1.76.3-3.62-1-4.78-2.13-2.28-2.29-2.91-6.31-2.78-9.4,0-.32-1.42-.11-1.45.38-.16,3.63.77,7.67,3.53,10.18a6.55,6.55,0,0,0,5,1.68,8.5,8.5,0,0,0,5.08-2.8A12.73,12.73,0,0,0,511.68,32a17.12,17.12,0,0,0-.15-5.3,9.25,9.25,0,0,0-1.25-3,9.63,9.63,0,0,0-1.95-2.62,6.26,6.26,0,0,0-5.48-1.41,12.21,12.21,0,0,0-3,1,5.61,5.61,0,0,0-2.06,2.23A15.7,15.7,0,0,0,496,26.73c-.14.49-.1,1-.25,1.49a4,4,0,0,0-.22,1c0,.32,1.43.11,1.45-.38Z" transform="translate(-486.68 -15.57)"/><path d="M505.62,20.16c-2.25-2-4.84,2.68-5.23,4.41A5.11,5.11,0,0,0,503,30.29c.82.41,1.79.44,2.51,1.05a3.62,3.62,0,0,1,1.12,2,8,8,0,0,1-.61,4.89c-.46,1-1.43,2.92-2.65,1.69-.41-.42-1.79.15-1.33.61,2.58,2.6,5.19-1.26,5.84-3.54a7.51,7.51,0,0,0-.08-4.91,4,4,0,0,0-1.4-1.71c-.82-.54-1.82-.57-2.65-1.08a4.37,4.37,0,0,1-2-3.33,5.34,5.34,0,0,1,.49-2.64c.15-.33,1.68-2.9,2.07-2.56s1.8-.19,1.33-.61Z" transform="translate(-486.68 -15.57)"/><path d="M488.69,18c2.13-2.17,4.52-1.42,7.19-1.09a46.56,46.56,0,0,0,5.41.27c4,0,7.94-.15,11.91-.27a28.78,28.78,0,0,1,3.94,0c.53.06.59.09.71.83a15.28,15.28,0,0,1,0,2.62l0,3-.16,20.27L517.59,54c0,1.55,0,3.11-.05,4.66,0,.25-.06.51-.07.76,0,.6-.13.34.1.15s0,0-.11,0a23.68,23.68,0,0,0-2.74.22c-1.55.05-3.11,0-4.66,0-6.65-.14-13.36-.43-20-1.18-.92-.1-1.27-.24-1.45-1.3a39.68,39.68,0,0,1-.26-6.07l-.11-11.28-.1-11.29A48.92,48.92,0,0,1,488.72,18c.13-.62-1.34-.41-1.46.15a47.59,47.59,0,0,0-.56,10.19l.11,11.29.11,11.28c0,1.65,0,3.31.1,5,.06,1-.07,3,1.13,3.47a14.65,14.65,0,0,0,3.37.4c1.72.15,3.45.28,5.17.39,4,.27,8.05.47,12.07.57,2.82.07,5.92.35,8.7-.23,1.22-.26,1.46-.68,1.54-2,.22-3.68.07-7.41.1-11.09l.17-22.25,0-5.44c0-1,.39-2.89-.64-3.51a5.5,5.5,0,0,0-2.68-.24c-4.72,0-9.44.35-14.16.32a42,42,0,0,1-6.72-.48c-2.88-.48-5.46-.29-7.61,1.9-.61.63.8.72,1.19.32Z" transform="translate(-486.68 -15.57)"/><path d="M487.72,43.32q15.09.57,30.18.25c.82,0,1.13-1,.14-1q-14.91.32-29.81-.24c-.68,0-1.49,1-.51,1Z" transform="translate(-486.68 -15.57)"/><path d="M508.6,49.56l.46,0h.1l.24,0,.23,0c.13,0-.09,0,.06,0l.22.08c.08,0,.08,0,0,0l.07,0,.13.09.07.06h0l.08.1s.1.18.06.09a1.83,1.83,0,0,1,.13.79,3.83,3.83,0,0,1-.08.83c0,.06,0,.07,0,0a.36.36,0,0,1,0,.09s-.08.14,0,0l-.06.07c.07-.06.07-.07,0,0l.05,0,.07,0-.09,0h-.11c-.14,0-.29,0-.44,0h-.9c-.33,0-.8.09-.94.44a.44.44,0,0,0,.43.6,11.08,11.08,0,0,0,1.91,0,2,2,0,0,0,1-.36,1.52,1.52,0,0,0,.56-.84,2.73,2.73,0,0,0,.1-.76,4.06,4.06,0,0,0-.05-.92,1.66,1.66,0,0,0-1-1.2,4.4,4.4,0,0,0-2.13-.24,1.18,1.18,0,0,0-.55.2.69.69,0,0,0-.25.38c0,.37.37.49.67.47Z" transform="translate(-486.68 -15.57)"/><path d="M501,49.43c.05,0,0-.06,0,0a.81.81,0,0,1-.29.12h0c-.07,0-.06,0,0,0l.12,0h0l.25.11a1.93,1.93,0,0,0,1.58,0,1.63,1.63,0,0,0,.34-.19c.18-.14-.14.09-.16,0s.58,0,.62,0l1.28,0c.29,0,.76-.21.82-.53s-.42-.39-.65-.38l-1.45.06a3.82,3.82,0,0,0-.75.08,2.26,2.26,0,0,0-.43.17l-.17.1L502,49h0c.05,0,.28-.09.32-.05a.66.66,0,0,0-.15,0l-.21-.09a2.43,2.43,0,0,0-.63-.2,1.69,1.69,0,0,0-1.56.47.39.39,0,0,0-.13.35.42.42,0,0,0,.29.24,1.14,1.14,0,0,0,1-.28Z" transform="translate(-486.68 -15.57)"/><path d="M503,51.68c0-.08,0,0,0,0s0-.05,0,0,0,0,0,0-.09.07,0,0l-.06,0c.06,0,.05,0-.05,0,.12-.06-.16,0-.17,0h-.08l.08,0s0,0,0,0l.05,0a3.9,3.9,0,0,0,1.4.45,2.34,2.34,0,0,0,2.37-1.56c.07-.29-.35-.34-.53-.33a1.14,1.14,0,0,0-.87.4l-.11.21c-.16.29.13.44.39.44s.8-.1,1-.4l.11-.21-1.4.07,0,.13s-.06.13,0,.07a1.19,1.19,0,0,1-.16.23c.08-.09,0,0,0,0s-.15.11,0,0l-.12.08s.15-.07,0,0,.17-.05,0,0,.17,0,0,0,.15,0,0,0,.06,0,0,0l-.11,0-.13,0-.31-.14a2.15,2.15,0,0,0-1.77-.11c-.45.16-1,.53-.87,1.07,0,.12.18.18.28.21a1.4,1.4,0,0,0,.54,0c.24-.07.68-.25.63-.57Z" transform="translate(-486.68 -15.57)"/><path d="M501.89,54.4s0-.11,0-.06,0,0,0,0,0,0,0,0l0,0c.06-.06,0,0,0,0s-.11.05,0,0-.16.06-.07,0,0,0,0,0,.09,0,.09,0-.16,0,0,0,.12,0,0,0h.05l.12,0,.57.17a2.76,2.76,0,0,0,2.68-.68c.08-.08.18-.2.14-.32s-.17-.18-.28-.2a1.25,1.25,0,0,0-1,.27l-.11.1s-.12.09,0,0l-.1.06s-.16.08-.07,0,0,0,0,0l.09,0c-.14,0,.09,0,0,0s.16,0,0,0h0c-.39-.08-.75-.25-1.13-.31a2.75,2.75,0,0,0-1.39.18,1.33,1.33,0,0,0-.84.84c-.08.32.43.35.63.32s.74-.18.82-.5Z" transform="translate(-486.68 -15.57)"/><path d="M515,19.51v16.2c0,.36,1.44.12,1.44-.38V19.13c0-.36-1.44-.12-1.44.38Z" transform="translate(-486.68 -15.57)"/><path d="M512.16,20.59V26c0,.21,1.44,0,1.44-.38v-5.4c0-.21-1.44,0-1.44.38Z" transform="translate(-486.68 -15.57)"/></svg>