<svg id="пк" xmlns="http://www.w3.org/2000/svg" viewBox="0 0 72.61 33.98"><path d="M318.05,32.23a4.18,4.18,0,0,0,1.07-2.94A13.57,13.57,0,0,0,319,26a2.29,2.29,0,0,0-1.47-1.77,10.24,10.24,0,0,0-3.27-.79,8.49,8.49,0,0,0-3.18.09c-.18,0-.72.22-.65.5s.65.15.81.1.12,0,0,0l.21,0h.4a11.12,11.12,0,0,1,1.29,0,10.49,10.49,0,0,1,2.93.62,2,2,0,0,1,1.44,1.4,12.52,12.52,0,0,1,.23,2.93,9.23,9.23,0,0,1-.22,1.81,2.44,2.44,0,0,1-.58,1.22c-.21.19-.17.37.12.43a1.44,1.44,0,0,0,1-.28Z" transform="translate(-246.56 -21.14)"/><path d="M309.63,23.45l-32.52.44L261,24.1c-2.64,0-5.29,0-7.93.11a8.9,8.9,0,0,0-4.55,1.17c-1.36.91-1.63,2.4-1.82,3.94a9,9,0,0,0,.15,3.72c.85,2.18,4.87,1.7,6.65,1.61,4.71-.23,9.45-.12,14.16-.14l16.18-.1L302,34.3c4.74,0,9.72.48,14.29-1.1,1-.33.07-.69-.54-.48-4,1.39-8.51.84-12.66.86l-14.69.09-29.63.18c-1.65,0-3.3,0-4.95.1a12.47,12.47,0,0,1-4.09-.22,2,2,0,0,1-1.58-2.18,14.11,14.11,0,0,1,.37-4.54c.64-2.19,3.33-2.08,5.16-2.11l7.2-.09,14.9-.2L309,24.17c.47,0,1.56-.73.59-.72Z" transform="translate(-246.56 -21.14)"/><path d="M272.64,23.33a.92.92,0,0,1,0-1.18c.33-.41,1-.31,1.42-.32h13.57c1.56,0,4.18-.42,4.72,1.55.09.33,1.54-.06,1.45-.39-.58-2.1-3.36-1.75-5-1.75h-8a55.54,55.54,0,0,0-7.3.05c-1.09.15-3.36,1.13-2.15,2.53.24.28,1.6-.23,1.37-.49Z" transform="translate(-246.56 -21.14)"/><path d="M270.51,34.51c-.43,1.88,2.17,1.79,3.29,1.79h14.81c1.25,0,2.51.06,3.76,0a2.08,2.08,0,0,0,1.77-.77c.52-.77-.83-1-1.22-.45-.26.38-1.8.13-2.2.13H274.58c-.61,0-2.85.29-2.6-.8.16-.72-1.32-.56-1.47.1Z" transform="translate(-246.56 -21.14)"/><path d="M268.31,53.1q9.78.21,19.56.07c.79,0,1.15-1,.16-1q-9.6.15-19.19-.06c-.3,0-.83.09-.95.42a.39.39,0,0,0,.42.54Z" transform="translate(-246.56 -21.14)"/><path d="M293.76,53.23a26,26,0,0,0,4.32.06c.29,0,.76-.21.81-.55s-.41-.43-.66-.41a22.72,22.72,0,0,1-4-.07,1,1,0,0,0-.95.43c-.16.31.15.51.43.54Z" transform="translate(-246.56 -21.14)"/><path d="M259.22,53a26,26,0,0,0,4.32.06c.3,0,.76-.21.81-.55s-.4-.42-.65-.41a23.74,23.74,0,0,1-3.95-.06,1,1,0,0,0-.95.42c-.17.32.14.51.42.54Z" transform="translate(-246.56 -21.14)"/><path d="M301.12,43.87c-.94-3.28-4.37-4.46-7.46-4.69-4.31-.32-8.73,0-13.05,0l-13.58,0c-2.78,0-5.88-.32-8.56.59-3.12,1.08-2.36,4.35-2.59,7a23.23,23.23,0,0,0,.44,5.88c.28,1.54,1,2,2.52,2,9,.18,18.05.23,27.07.35l7.46.09c1.86,0,3.85.14,5.57-.71,3.18-1.55,3.11-5.45,2.78-8.48-.06-.5-1.51-.18-1.45.39.29,2.65.53,7-2.86,7.8a22.85,22.85,0,0,1-5.23.12l-5.71-.07-22.36-.28-2.48,0c-.82,0-2.73.28-3.38-.28-.44-.38-.47-1.25-.55-1.78-.15-.92-.28-1.84-.35-2.77-.13-1.58.14-3.1.13-4.67s-.26-3.39,1.56-4c2.38-.73,5.22-.38,7.68-.38l10.86,0,12.35,0c3.58,0,8.53.07,9.74,4.29.15.53,1.6.14,1.45-.39Z" transform="translate(-246.56 -21.14)"/><path d="M308.54,47.18c.22-1,.85-1.91.7-3a1.88,1.88,0,0,0-2.15-1.49,3,3,0,0,0-2.45,1.77,8.49,8.49,0,0,0-.55,3.16,5.1,5.1,0,0,0,.55,2.85,2.9,2.9,0,0,0,2.47,1.34,4.37,4.37,0,0,0,2.76-1,5.13,5.13,0,0,0,1.63-2.73,12.48,12.48,0,0,0,.36-3.75,1.84,1.84,0,0,0-.78-1.58,1.73,1.73,0,0,0-1.9.07.5.5,0,0,0-.06.8.92.92,0,0,0,1-.07c-.23.15-.24,0-.06.16a.74.74,0,0,1,.23.38,4.17,4.17,0,0,1,0,1.32,13.32,13.32,0,0,1-.28,2.52c-.31,1.28-1.18,2.69-2.63,2.75s-1.9-1.58-1.91-2.77a13.25,13.25,0,0,1,.21-2.35c.11-.62.36-1.44,1-1.68a.75.75,0,0,1,1,.79,12.2,12.2,0,0,1-.72,2.56c-.08.37.41.54.68.52a.82.82,0,0,0,.79-.61Z" transform="translate(-246.56 -21.14)"/><path d="M251.24,27.64h14c.28,0,.81-.1,1-.39s-.12-.41-.39-.41h-14c-.28,0-.81.1-1,.39s.12.41.39.41Z" transform="translate(-246.56 -21.14)"/><path d="M259.31,43.59c1.38,0,2.74,0,4.15,0a1.06,1.06,0,0,0,1-.43c.15-.29-.14-.53-.43-.54-1.5,0-3,0-4.52,0-.29,0-.76.22-.8.55s.4.41.65.41Z" transform="translate(-246.56 -21.14)"/><path d="M293.84,43.59c1.39,0,2.74,0,4.15,0a1,1,0,0,0,.95-.43c.16-.29-.13-.53-.42-.54-1.51,0-3,0-4.52,0-.3,0-.76.22-.81.55s.4.41.65.41Z" transform="translate(-246.56 -21.14)"/><path d="M287.12,43.59c1.39,0,2.74,0,4.15,0a1,1,0,0,0,1-.43c.16-.29-.13-.53-.42-.54-1.51,0-3,0-4.52,0-.3,0-.76.22-.81.55s.4.41.65.41Z" transform="translate(-246.56 -21.14)"/><path d="M273.78,43.59c1.38,0,2.74,0,4.15,0a1.06,1.06,0,0,0,.95-.43c.15-.29-.14-.53-.43-.54-1.5,0-3,0-4.52,0-.29,0-.76.22-.8.55s.4.41.65.41Z" transform="translate(-246.56 -21.14)"/><path d="M266.81,43.59c1.39,0,2.74,0,4.15,0a1,1,0,0,0,1-.43c.16-.29-.13-.53-.42-.54-1.51,0-3,0-4.52,0-.3,0-.76.22-.81.55s.4.41.65.41Z" transform="translate(-246.56 -21.14)"/><path d="M280.59,43.59c1.39,0,2.74,0,4.15,0a1,1,0,0,0,.95-.43c.16-.29-.13-.53-.42-.54-1.51,0-3,0-4.52,0-.3,0-.76.22-.81.55s.41.41.65.41Z" transform="translate(-246.56 -21.14)"/><path d="M259.31,46.76c1.38,0,2.74,0,4.15,0a1.06,1.06,0,0,0,1-.43c.15-.3-.14-.54-.43-.54-1.5,0-3,0-4.52,0-.29,0-.76.22-.8.55s.4.42.65.42Z" transform="translate(-246.56 -21.14)"/><path d="M293.84,46.74c1.39,0,2.74,0,4.15,0a1,1,0,0,0,.95-.42c.16-.3-.13-.54-.42-.54-1.51,0-3,0-4.52,0-.3,0-.76.22-.81.55s.4.42.65.41Z" transform="translate(-246.56 -21.14)"/><path d="M287.12,46.76c1.39,0,2.74,0,4.15,0a1,1,0,0,0,1-.43c.16-.3-.13-.54-.42-.54-1.51,0-3,0-4.52,0-.3,0-.76.22-.81.55s.4.42.65.42Z" transform="translate(-246.56 -21.14)"/><path d="M273.78,46.76c1.38,0,2.74,0,4.15,0a1.06,1.06,0,0,0,.95-.43c.15-.3-.14-.54-.43-.54-1.5,0-3,0-4.52,0-.29,0-.76.22-.8.55s.4.42.65.42Z" transform="translate(-246.56 -21.14)"/><path d="M266.81,46.76c1.39,0,2.74,0,4.15,0a1,1,0,0,0,1-.43c.16-.3-.13-.54-.42-.54-1.51,0-3,0-4.52,0-.3,0-.76.22-.81.55s.4.42.65.42Z" transform="translate(-246.56 -21.14)"/><path d="M280.59,46.76c1.39,0,2.74,0,4.15,0a1,1,0,0,0,.95-.43c.16-.3-.13-.54-.42-.54-1.51,0-3,0-4.52,0-.3,0-.76.22-.81.55s.41.42.65.42Z" transform="translate(-246.56 -21.14)"/><path d="M259.31,49.92c1.38,0,2.74,0,4.15,0a1.06,1.06,0,0,0,1-.43c.15-.29-.14-.53-.43-.53-1.5,0-3,0-4.52,0-.29,0-.76.22-.8.55s.4.41.65.41Z" transform="translate(-246.56 -21.14)"/><path d="M293.84,49.92c1.39,0,2.74,0,4.15,0a1,1,0,0,0,.95-.43c.16-.29-.13-.53-.42-.53-1.51,0-3,0-4.52,0-.3,0-.76.22-.81.55s.4.41.65.41Z" transform="translate(-246.56 -21.14)"/><path d="M287.12,49.92c1.39,0,2.74,0,4.15,0a1,1,0,0,0,1-.43c.16-.29-.13-.53-.42-.53-1.51,0-3,0-4.52,0-.3,0-.76.22-.81.55s.4.41.65.41Z" transform="translate(-246.56 -21.14)"/><path d="M273.78,49.92c1.38,0,2.74,0,4.15,0a1.06,1.06,0,0,0,.95-.43c.15-.29-.14-.53-.43-.53-1.5,0-3,0-4.52,0-.29,0-.76.22-.8.55s.4.41.65.41Z" transform="translate(-246.56 -21.14)"/><path d="M266.81,49.92c1.39,0,2.74,0,4.15,0a1,1,0,0,0,1-.43c.16-.29-.13-.53-.42-.53-1.51,0-3,0-4.52,0-.3,0-.76.22-.81.55s.4.41.65.41Z" transform="translate(-246.56 -21.14)"/><path d="M280.59,49.92c1.39,0,2.74,0,4.15,0a1,1,0,0,0,.95-.43c.16-.29-.13-.53-.42-.53-1.51,0-3,0-4.52,0-.3,0-.76.22-.81.55s.41.41.65.41Z" transform="translate(-246.56 -21.14)"/></svg>