<svg id="куллер" xmlns="http://www.w3.org/2000/svg" viewBox="0 0 32.73 44.17"><path d="M444.8,18c2.14-2.18,4.68-1.46,7.37-1.05a58,58,0,0,0,9.3.69,60.94,60.94,0,0,0,8.21-.62c1.12-.16,3.88-.93,4.26.53a8.9,8.9,0,0,1,0,2.19c0,.77,0,1.55,0,2.32l0,4.46-.06,9q-.08,9.15-.14,18.29c0,.62,0,1.24,0,1.86a10,10,0,0,0,0,2.32v.23c-.05.37.06.33.35-.13-.06,0,.08,0,0,0a.83.83,0,0,0-.27.06c-.85.13-1.72.18-2.59.24-3,.19-5.94.27-8.92.32-3.36.07-6.71.09-10.07,0-1.37,0-2.74,0-4.1-.1a9.43,9.43,0,0,1-2.76-.19c-1.12-.48-.82-3.88-.84-4.84,0-1.71,0-3.42,0-5.13L444.37,38c0-3.43-.07-6.86-.1-10.3a45,45,0,0,1,.56-9.7c.13-.62-1.34-.41-1.45.15a43.37,43.37,0,0,0-.57,9.46c0,3.51.07,7,.1,10.54l.1,10.3c0,1.63,0,3.26,0,4.89a23,23,0,0,0,.32,4.77c.34,1.41,1.5,1.36,2.71,1.44,1.36.1,2.72.13,4.08.16,3.69.08,7.37.06,11,0,3.28-.06,6.56-.13,9.84-.34A24.56,24.56,0,0,0,473.9,59c1.31-.27,1.25-.75,1.26-2.1q.07-9.93.14-19.87c0-3.33.05-6.66.07-10,0-3.15.3-6.41.05-9.55-.17-2.16-2.74-1.75-4.3-1.58-3,.33-6,.75-9.12.78a71,71,0,0,1-11.27-1c-2.71-.42-5.14,0-7.12,2-.61.63.8.72,1.19.32Z" transform="translate(-442.8 -15.55)"/><path d="M443.83,43.32q15.09.57,30.19.25c.81,0,1.12-1,.13-1q-14.89.32-29.81-.24c-.68,0-1.48,1-.51,1Z" transform="translate(-442.8 -15.55)"/><path d="M448.43,50.36a5.33,5.33,0,0,1,.17-.66,2.62,2.62,0,0,1,.61-1.09,4.41,4.41,0,0,1,.75-.86c.06,0,.27-.15.08-.08l.2-.05c.19,0,.37-.12.56-.16a3,3,0,0,1,2.19.41,3.27,3.27,0,0,1,.79.69,4.71,4.71,0,0,1,.75,1.09,4.06,4.06,0,0,1-.71,3.89,2.79,2.79,0,0,1-1.77,1,3.24,3.24,0,0,1-1.79-.49,4,4,0,0,1-1.83-3.65c0-.48-1.42-.18-1.44.22a4.28,4.28,0,0,0,2,4,5.11,5.11,0,0,0,5.53-.45,4.56,4.56,0,0,0,1.73-3.72,7,7,0,0,0-.19-.93,2.88,2.88,0,0,0-.66-1.13,4.2,4.2,0,0,0-1.07-1,4.42,4.42,0,0,0-2.87-.56,4.72,4.72,0,0,0-3.11,1.35,7.16,7.16,0,0,0-1,1.34,3.24,3.24,0,0,0-.21.69,1.59,1.59,0,0,0-.15.45c0,.48,1.41.18,1.44-.22Z" transform="translate(-442.8 -15.55)"/><path d="M450.11,49.53s-.06,0-.07,0,.07,0,.1,0a2.77,2.77,0,0,1,.26.1,1.05,1.05,0,0,0,.9,0,2.18,2.18,0,0,1,.25-.14,2.35,2.35,0,0,1,.38,0l.87,0a.4.4,0,0,0,.4-.3c0-.19-.19-.26-.34-.26l-1,0a2.42,2.42,0,0,0-.47,0,.92.92,0,0,0-.23.09s-.12.09-.14.09a.67.67,0,0,1-.26-.09,1.49,1.49,0,0,0-.39-.13.89.89,0,0,0-.87.28.23.23,0,0,0,.1.37.46.46,0,0,0,.51-.13Z" transform="translate(-442.8 -15.55)"/><path d="M451.5,51.09a.2.2,0,0,1,0-.15l0,0s0,0,0,0l-.1,0h0l.18,0a2.23,2.23,0,0,0,.86.28,1.5,1.5,0,0,0,1.5-.94c0-.18-.64,0-.72.13l-.08.14c-.06.12.26.08.29.07s.36-.06.43-.19l.08-.15-.72.13a.77.77,0,0,1-.15.33.68.68,0,0,1-.24.2c.06,0-.07,0,0,0s.11,0,0,0h-.1a2.26,2.26,0,0,1-.43-.17,1.18,1.18,0,0,0-.45-.14,1.37,1.37,0,0,0-.6.09c-.24.08-.58.26-.53.57,0,.14.75,0,.72-.2Z" transform="translate(-442.8 -15.55)"/><path d="M450.72,52.93a.36.36,0,0,1,0-.09s0-.05,0,0,0,0,0,0h0c.05,0-.07,0,0,0s0,0,0,0h0s.05,0,0,0h.07s0,0,0,0a.41.41,0,0,1,.16,0l.36.11a1.66,1.66,0,0,0,.91,0,1.91,1.91,0,0,0,.77-.44c.1-.1.08-.21-.07-.24a.71.71,0,0,0-.51.14,1.38,1.38,0,0,1-.25.19.06.06,0,0,1-.05,0h-.1c-.26,0-.5-.17-.77-.21-.44-.06-1.18.08-1.31.6-.06.25.66.14.72-.1Z" transform="translate(-442.8 -15.55)"/><path d="M463.26,50.36a5.33,5.33,0,0,1,.17-.66,2.62,2.62,0,0,1,.61-1.09,4.41,4.41,0,0,1,.75-.86c.06,0,.27-.15.08-.08l.2-.05c.19,0,.37-.12.56-.16a3,3,0,0,1,2.2.41,3.22,3.22,0,0,1,.78.69,4.42,4.42,0,0,1,.75,1.09,4.06,4.06,0,0,1-.71,3.89,2.79,2.79,0,0,1-1.77,1,3.24,3.24,0,0,1-1.79-.49,4,4,0,0,1-1.83-3.65c0-.48-1.42-.18-1.44.22a4.28,4.28,0,0,0,2,4,5.11,5.11,0,0,0,5.53-.45,4.56,4.56,0,0,0,1.73-3.72,7,7,0,0,0-.19-.93,2.88,2.88,0,0,0-.66-1.13,4.2,4.2,0,0,0-1.07-1,4.42,4.42,0,0,0-2.87-.56,4.72,4.72,0,0,0-3.11,1.35,7.16,7.16,0,0,0-1,1.34,3.24,3.24,0,0,0-.21.69,1.59,1.59,0,0,0-.15.45c0,.48,1.41.18,1.44-.22Z" transform="translate(-442.8 -15.55)"/><path d="M464.94,49.53s-.06,0-.07,0,.07,0,.1,0a2.77,2.77,0,0,1,.26.1,1.05,1.05,0,0,0,.9,0,2.18,2.18,0,0,1,.25-.14,2.35,2.35,0,0,1,.38,0l.87,0a.4.4,0,0,0,.4-.3c0-.19-.19-.26-.34-.26l-1,0a2.42,2.42,0,0,0-.47,0,.92.92,0,0,0-.23.09s-.12.09-.14.09a.67.67,0,0,1-.26-.09,1.38,1.38,0,0,0-.39-.13.89.89,0,0,0-.87.28.23.23,0,0,0,.1.37.46.46,0,0,0,.51-.13Z" transform="translate(-442.8 -15.55)"/><path d="M466.33,51.09a.26.26,0,0,1,0-.15l0,0s0,0,0,0l-.1,0h-.05l.18,0a2.23,2.23,0,0,0,.86.28,1.5,1.5,0,0,0,1.5-.94c0-.18-.64,0-.72.13l-.08.14c-.06.12.26.08.29.07s.36-.06.43-.19l.08-.15-.72.13a.67.67,0,0,1-.15.33.68.68,0,0,1-.24.2c.06,0-.07,0,0,0s.1,0,0,0h-.1a2.26,2.26,0,0,1-.43-.17,1.18,1.18,0,0,0-.45-.14,1.37,1.37,0,0,0-.6.09c-.24.08-.58.26-.53.57,0,.14.75,0,.72-.2Z" transform="translate(-442.8 -15.55)"/><path d="M465.55,52.93a.36.36,0,0,1,0-.09s0-.05,0,0,0,0,0,0h0s0,0,0,0-.07,0,0,0,0,0,0,0h.11c.05,0,0,0,0,0a.41.41,0,0,1,.16,0l.37.11a1.62,1.62,0,0,0,.9,0,1.91,1.91,0,0,0,.77-.44c.1-.1.08-.21-.07-.24a.71.71,0,0,0-.51.14,1.1,1.1,0,0,1-.25.19.06.06,0,0,1-.05,0h-.1c-.26,0-.5-.17-.77-.21-.44-.06-1.18.08-1.31.6-.06.25.67.14.72-.1Z" transform="translate(-442.8 -15.55)"/><path d="M450.07,28.94a16,16,0,0,1,.46-1.78,7.88,7.88,0,0,1,1.72-3.09,13,13,0,0,1,2.21-2.47,8.15,8.15,0,0,1,3.42-1.21,9.29,9.29,0,0,1,6.85,1.22,8.35,8.35,0,0,1,2.11,1.86,12,12,0,0,1,2.11,3,11.29,11.29,0,0,1-2,10.77,9.53,9.53,0,0,1-6.1,3.18A9.65,9.65,0,0,1,455.08,39a11,11,0,0,1-5-10.09c0-.49-1.42-.18-1.44.22A12.56,12.56,0,0,0,449.68,35a10.1,10.1,0,0,0,4.18,4.7c3.85,2.4,9.25,1.82,12.8-.88a11.27,11.27,0,0,0,3.95-6.08,11.31,11.31,0,0,0,.43-3.51,21.46,21.46,0,0,0-.51-2.51,7.57,7.57,0,0,0-1.69-2.91A11.36,11.36,0,0,0,466,21a10.54,10.54,0,0,0-6.79-1.41,24,24,0,0,0-4.11.94,6.63,6.63,0,0,0-2.94,2.11,20.28,20.28,0,0,0-2.51,3.45,7.73,7.73,0,0,0-.56,1.85,4.94,4.94,0,0,0-.41,1.23c0,.48,1.41.18,1.44-.22Z" transform="translate(-442.8 -15.55)"/><path d="M448,43.72c.06.32.1.66.17,1a.91.91,0,0,0,.62.72,3.18,3.18,0,0,0,1.11.09h1a3.32,3.32,0,0,0,2.16-.35,2,2,0,0,0,.6-1.51c0-.36-.36-.54-.68-.51s-.79.23-.79.61a5,5,0,0,1-.06.54c0,.1,0,0,0,0a.61.61,0,0,0-.05.12c0,.07,0,0,0,0s-.13.1,0,0,.11-.06,0,0c.28-.11.19-.05.07-.05s-.27,0-.41,0h-2s-.24,0-.13,0-.08,0-.08,0h0s.08,0,.07,0-.07-.31-.07-.34l-.13-.77c-.05-.36-.59-.41-.86-.33s-.65.34-.59.72Z" transform="translate(-442.8 -15.55)"/><path d="M462.86,43.76a2,2,0,0,0,.82,1.48,2.37,2.37,0,0,0,1.12.16l1.34,0,1.24-.05a5.09,5.09,0,0,0,1.4-.2,1.22,1.22,0,0,0,.58-.36.62.62,0,0,0,.07-.46,4.42,4.42,0,0,0-.3-1.12c-.15-.35-1.56.11-1.45.39a4.27,4.27,0,0,1,.26.86c0,.13,0,.28.05.42v.06l.66-.23a1.53,1.53,0,0,0-.3,0c-.64,0-1.28.07-1.93.09h-.89a1,1,0,0,1-.67-.19,2.14,2.14,0,0,1-.55-1.24c-.07-.32-1.53,0-1.45.39Z" transform="translate(-442.8 -15.55)"/><path d="M459.5,23.06c-.05.52-.61,1.12-.88,1.54-.62.94-1.23,1.89-1.78,2.88-1,1.8-2.23,4.36-1.28,6.41s3.75,2.28,5.77,2c1.68-.28,3.55-1.11,3.91-3a6.55,6.55,0,0,0-1.37-4.79c-.7-1-1.44-2-2.15-3-.29-.4-.57-.81-.89-1.19s-.7-.66-.61-1c0-.18-.66-.08-.72.12-.11.42.46.9.69,1.19.59.71,1.1,1.49,1.64,2.24,1.11,1.52,2.29,3,2.66,4.85a3.5,3.5,0,0,1-.57,3,3.76,3.76,0,0,1-2.09,1.16c-1.94.44-4.66.23-5.57-1.81s.27-4.38,1.21-6.11c.55-1,1.17-2,1.81-3,.29-.43.89-1.07.94-1.62,0-.21-.7-.07-.72.12Z" transform="translate(-442.8 -15.55)"/><path d="M459,27.87c-.09-.36-.76,0-.92.12a3.32,3.32,0,0,0-.66.91,6.5,6.5,0,0,0-1,3.14,1.81,1.81,0,0,0,.43,1.26.83.83,0,0,0,1.23.11,2.12,2.12,0,0,0,.33-1c.11-.55.18-1.12.26-1.68s.14-1.28.21-1.91c0-.22,0-.44.07-.65a.81.81,0,0,1,0-.27c.06-.13-.26-.1-.3-.09s-.35.07-.42.21a1.91,1.91,0,0,0-.08.59c-.05.43-.09.86-.14,1.3a26.18,26.18,0,0,1-.43,2.93c0,.15-.08.3-.13.45s0,.1-.07.14,0,0,0,0,.51-.14.52-.13a1.75,1.75,0,0,0-.27-.16l-.21-.21a1.7,1.7,0,0,1-.24-.53,4.58,4.58,0,0,1,.49-2.78,7.08,7.08,0,0,1,.7-1.3,2.54,2.54,0,0,1,.29-.36s0-.07,0,0l0,0-.21.05s-.26.07-.27,0,0,0,0,0c0,.18.77,0,.72-.19Z" transform="translate(-442.8 -15.55)"/><path d="M471.17,19v5.4c0,.21,1.45,0,1.45-.38v-5.4c0-.21-1.45,0-1.45.38Z" transform="translate(-442.8 -15.55)"/></svg>