<svg id="принтер" xmlns="http://www.w3.org/2000/svg" viewBox="0 0 55.57 41.31"><path d="M182.54-31.88a118.81,118.81,0,0,0,.58,13.47,10.71,10.71,0,0,0,.41,3,1.78,1.78,0,0,0,1.66.85c2.29.16,4.63,0,6.93,0,.3,0,.82-.08.95-.42s-.1-.51-.42-.51h-6a3.66,3.66,0,0,1-1.28-.07c-.49-.19-.47-.65-.53-1.1q-.19-1.56-.33-3.12A113.83,113.83,0,0,1,184-32c0-.68-1.45-.42-1.46.15Z" transform="translate(-172.42 55.49)"/><path d="M180.48-34.19h37.16c.55,0,1.54-.83.56-.83H181c-.55,0-1.53.83-.56.83Z" transform="translate(-172.42 55.49)"/><path d="M197.17-49.13h11.67a1.11,1.11,0,0,0,1-.41c.14-.3-.13-.48-.41-.48H197.72c-.31,0-.8.09-.95.41s.12.48.4.48Z" transform="translate(-172.42 55.49)"/><path d="M212.06-50.54c1.47-2.36-1.31-4.16-3.32-4.49a67.29,67.29,0,0,0-10.24-.46c-1.78,0-3.57,0-5.35.07a13.68,13.68,0,0,0-4.28.43c-2.33.84-2.34,3.24-2,5.34l.85-.51c-3.81.64-7.76-.34-11.38,1.36a6.34,6.34,0,0,0-3.27,3.1c-.78,1.78-.61,3.92-.64,5.81a69.64,69.64,0,0,0,.75,13.69,3.94,3.94,0,0,0,2.72,3.43,10.59,10.59,0,0,0,4.62,0c.63-.1,1.26-.8.25-.64-1.54.24-3.42.49-4.76-.49s-1.43-2.82-1.63-4.3a75.36,75.36,0,0,1-.51-11.14c0-3.37-.39-7.48,3.25-9.15,3.18-1.45,7-.48,10.35-1.05.19,0,.9-.19.85-.51a7.65,7.65,0,0,1-.1-2.9c.36-1.59,1.67-1.71,3.1-1.76,2.59-.1,5.18-.14,7.77-.1s5.3.08,7.92.34a4.84,4.84,0,0,1,3.27,1.29,2.36,2.36,0,0,1,.32,2.85c-.15.25,1.19.16,1.44-.22Z" transform="translate(-172.42 55.49)"/><path d="M211.91-49c2-.09,4-.11,6,0,1.73.07,3.79,0,5.39.77,3.47,1.63,3.29,6.76,3.15,9.94-.18,3.86-.39,7.71-.58,11.56,0,1,.2,2.39-.79,3a7.93,7.93,0,0,1-2.51.59,19.39,19.39,0,0,1-5.94,0c-.72-.1-1.47.92-.49,1.06a20.94,20.94,0,0,0,6.61-.07c1.36-.23,3.79-.45,4.37-2a9.58,9.58,0,0,0,.22-2.73l.19-3.87c.12-2.41.25-4.83.36-7.25.17-3.52.41-8.52-2.91-10.79-1.62-1.11-3.73-1.16-5.62-1.27a68.93,68.93,0,0,0-7.33,0c-.83,0-1.11,1.12-.13,1.07Z" transform="translate(-172.42 55.49)"/><path d="M185.41-25.82c9.1,0,18.14,1.85,27.22.46.3,0,1.7-.35,1.7-.77s-.85-.29-1.15-.25c-8.58,1.31-17.27-.55-25.88-.58a3.52,3.52,0,0,0-2.05.55c-.38.29-.47.59.16.59Z" transform="translate(-172.42 55.49)"/><path d="M185.06-17.8c9.1,0,18.14,1.84,27.22.46.3-.05,1.7-.35,1.7-.77s-.85-.29-1.15-.25c-8.58,1.31-17.27-.55-25.88-.59a3.68,3.68,0,0,0-2,.55c-.37.3-.47.6.16.6Z" transform="translate(-172.42 55.49)"/><path d="M185.06-17.8c9.1,0,18.14,1.84,27.22.46.3-.05,1.7-.35,1.7-.77s-.85-.29-1.15-.25c-8.58,1.31-17.27-.55-25.88-.59a3.68,3.68,0,0,0-2,.55c-.37.3-.47.6.16.6Z" transform="translate(-172.42 55.49)"/><path d="M185.06-29.65c9.1,0,18.14,1.85,27.22.47.3-.05,1.7-.35,1.7-.78s-.85-.29-1.15-.24c-8.58,1.31-17.27-.56-25.88-.59a3.6,3.6,0,0,0-2,.55c-.37.3-.47.59.16.59Z" transform="translate(-172.42 55.49)"/><path d="M185.06-21.81c9.1,0,18.14,1.84,27.22.46.3,0,1.7-.35,1.7-.77s-.85-.29-1.15-.25c-8.58,1.31-17.27-.55-25.88-.58a3.59,3.59,0,0,0-2,.54c-.37.3-.47.6.16.6Z" transform="translate(-172.42 55.49)"/><path d="M185.06-29.65c9.1,0,18.14,1.85,27.22.47.3-.05,1.7-.35,1.7-.78s-.85-.29-1.15-.24c-8.58,1.31-17.27-.56-25.88-.59a3.6,3.6,0,0,0-2,.55c-.37.3-.47.59.16.59Z" transform="translate(-172.42 55.49)"/><path d="M197.15-14.22H212.9c1,0,2.55.22,3.43-.54s.09-2.6-.05-3.55a41.14,41.14,0,0,1-.46-5.09,43,43,0,0,1,1-10.42c.1-.45-1.35-.22-1.44.22a43.78,43.78,0,0,0-1,8.77,58.61,58.61,0,0,0,.85,9.06c0,.11.15.74.06.82a3.94,3.94,0,0,1-1,0h-16.5c-.48,0-1.56.71-.59.71Z" transform="translate(-172.42 55.49)"/><path d="M185.31-47.17a11.4,11.4,0,0,1-3.64,0,7.72,7.72,0,0,0-3.57.37c-2.5,1-2.71,3.69-2.63,6.05,0,.52,1.47.22,1.45-.39-.06-1.79,0-4.63,2.19-5.1a10.07,10.07,0,0,1,3,.06,10.07,10.07,0,0,0,3.42-.13c.24,0,.7-.28.61-.6s-.6-.27-.83-.21Z" transform="translate(-172.42 55.49)"/></svg>