<svg id="ресепшен" xmlns="http://www.w3.org/2000/svg" viewBox="0 0 145.5 101.51"><path d="M337.61,214.41c12.45-3.71,25.81-2.18,38.58-1.64q20.38.85,40.78.84c12.62,0,25.25-.23,37.86-.77,6.42-.28,13-.8,19.43-.22a12,12,0,0,1,1.34.18c.82.17,1.73.39,2,1.31a10.48,10.48,0,0,1,0,2.74l-.28,10.46-.57,20.42-.28,10.46-.13,4.73c0,1.57.23,3.7-.74,5.05-1.7,2.36-6.19,2.12-8.74,2.28-3.38.23-6.76.37-10.14.45-13.65.31-27.3-.38-40.93-.95L374.43,268,354,267.16l-10.21-.43c-1.53-.06-3.6.16-5-.48s-1.93-2.55-2.2-4c-.6-3.23-.42-6.67-.53-10l-.34-10.16L335.36,232c-.11-3.26-.38-6.57-.22-9.83a13.53,13.53,0,0,1,2.57-7.8c.36-.46-1.07-.33-1.33,0-3.79,4.92-2.68,11.71-2.49,17.5l.71,21.32c.11,3.24-.09,6.7.6,9.89a5.7,5.7,0,0,0,1.8,3.51,6.24,6.24,0,0,0,3.45.79c7.14.35,14.29.6,21.43.9l43.35,1.82c14.21.6,28.43,1.39,42.66,1.44,7,0,14-.14,21-.71,2.35-.19,5.06-.46,7-1.9,2.29-1.68,1.78-4.87,1.85-7.37q.6-21.54,1.19-43.09L479,216a9.33,9.33,0,0,0,0-2.24c-.28-1.18-1.57-1.47-2.62-1.67a23.26,23.26,0,0,0-3.73-.29c-3.92-.12-7.86,0-11.79.12-10.29.33-20.58.76-30.88.9q-21.39.28-42.78-.38c-7.06-.22-14.12-.57-21.18-.87a117.46,117.46,0,0,0-19.67.4,56.26,56.26,0,0,0-8.92,1.84c-.85.26-.7.9.17.64Z" transform="translate(-333.59 -170.01)"/><path d="M427.39,179.68a17.56,17.56,0,0,1,.47-1.83,8.24,8.24,0,0,1,1.77-3.17,13.34,13.34,0,0,1,2.27-2.53,8.35,8.35,0,0,1,3.53-1.25,9.55,9.55,0,0,1,7,1.25,8.62,8.62,0,0,1,2.17,1.91,12.4,12.4,0,0,1,2.16,3.11,11.55,11.55,0,0,1-2.08,11.05,9.75,9.75,0,0,1-6.27,3.28,10,10,0,0,1-5.92-1.46,11.32,11.32,0,0,1-5.14-10.36c0-.49-1.42-.18-1.44.22a12.77,12.77,0,0,0,1.08,5.94,10.36,10.36,0,0,0,4.29,4.82c3.94,2.46,9.46,1.87,13.1-.9a11.46,11.46,0,0,0,4-6.23,11.3,11.3,0,0,0,.45-3.6,20.19,20.19,0,0,0-.53-2.57,7.65,7.65,0,0,0-1.73-3,11.47,11.47,0,0,0-3-2.84,10.75,10.75,0,0,0-6.95-1.45,25.4,25.4,0,0,0-4.21,1,6.92,6.92,0,0,0-3,2.16,19.87,19.87,0,0,0-2.57,3.54,7.28,7.28,0,0,0-.57,1.9,4.81,4.81,0,0,0-.43,1.26c0,.48,1.41.18,1.44-.22Z" transform="translate(-333.59 -170.01)"/><path d="M431.46,192.21c-6.38,3.95-7,12-7.31,18.73,0,.26,1.43.07,1.45-.39.27-6.49.82-14.45,7-18.26.29-.17.12-.28-.09-.35a1.53,1.53,0,0,0-1,.27Z" transform="translate(-333.59 -170.01)"/><path d="M443.37,192.49c6.25,3.87,6.83,11.83,7.11,18.44,0,.29,1.46,0,1.44-.39-.28-6.66-.89-14.67-7.19-18.56-.36-.22-1.6.37-1.36.51Z" transform="translate(-333.59 -170.01)"/><path d="M344.5,254.79a7,7,0,0,0,2.23-3.24c.21-.65.26-1.34.5-2a3.49,3.49,0,0,1,1.39-1.58l-1.24.22c2.3,2.52,2.44,6.15,3.53,9.23.12.35,1.56-.08,1.45-.39-1.12-3.15-1.26-6.76-3.61-9.34-.23-.25-1,.07-1.24.22a5.49,5.49,0,0,0-1.45,1.35,6.57,6.57,0,0,0-.64,2.1,6.68,6.68,0,0,1-2.23,3.51c-.27.22.23.26.34.25a1.62,1.62,0,0,0,1-.35Z" transform="translate(-333.59 -170.01)"/><path d="M348.78,247.65q10.65.48,21.31.45c3.61,0,7.22-.07,10.82-.17a5.3,5.3,0,0,1,2.8.22,6.66,6.66,0,0,1,1.45,1.5,44.33,44.33,0,0,1,3.32,4.39c.25.38,1.59-.18,1.45-.39a46.1,46.1,0,0,0-3-4c-.79-1-1.58-2.17-2.89-2.36a32,32,0,0,0-5,.07q-3,.07-5.9.1-11.73.09-23.45-.44c-.34,0-1.66.6-.94.63Z" transform="translate(-333.59 -170.01)"/><path d="M354,257l35.43.14c.58,0,1.53-.86.55-.87l-35.43-.14c-.58,0-1.53.87-.55.87Z" transform="translate(-333.59 -170.01)"/><path d="M355.8,252.84a4.15,4.15,0,0,1,.64.46,2.31,2.31,0,0,0,.69.33,2.74,2.74,0,0,0,1.72-.12c.06,0,.3-.11.21-.21s-.39,0-.46,0a.89.89,0,0,1-.45.07,1.87,1.87,0,0,1-.57-.12,11.23,11.23,0,0,1-1.09-.7.64.64,0,0,0-.47,0s-.33.15-.22.2Z" transform="translate(-333.59 -170.01)"/><path d="M352.12,250.64a4.32,4.32,0,0,1,2.53,3.15,1,1,0,0,1,0,.43.62.62,0,0,1-.07.19l-.05.06.26-.07-.12-.06a2.09,2.09,0,0,1-.72-.94,2.11,2.11,0,0,1,.06-2.12.82.82,0,0,1,.72-.45,1.14,1.14,0,0,1,.86.54c.11.17.78-.1.73-.2a1.76,1.76,0,0,0-2.29-.4,2,2,0,0,0-1,2.22,3.05,3.05,0,0,0,.68,1.34,1,1,0,0,0,.52.35,1.25,1.25,0,0,0,.78-.14c.78-.4.26-1.58,0-2.14a4.49,4.49,0,0,0-2.15-2,.7.7,0,0,0-.47,0s-.33.15-.21.2Z" transform="translate(-333.59 -170.01)"/><path d="M360.46,250.7c-.3-.56-1.19-.45-1.7-.33-.29.07-.67.21-.7.56a1.14,1.14,0,0,0,.43.83c.48.5,1.1.85,1.63,1.31a3,3,0,0,1,.69.81,1.09,1.09,0,0,1,.16.61.57.57,0,0,1-.08.28.83.83,0,0,1-.08.12c-.09.06-.05.06.11,0a.83.83,0,0,0-.49.17c-.09.13.08.12.17.12a1.27,1.27,0,0,0,.92-.41.89.89,0,0,0,.09-.93,3.74,3.74,0,0,0-1.29-1.39,4.55,4.55,0,0,1-1.43-1.29.69.69,0,0,1-.1-.42.28.28,0,0,1,0-.12c-.05,0-.06,0,0,0a.55.55,0,0,1,.18,0,.73.73,0,0,1,.74.31c.09.17.78-.09.72-.19Z" transform="translate(-333.59 -170.01)"/><path d="M363.56,252.56a2.54,2.54,0,0,0,1.45-1.65c0-.09-.08-.16-.15-.18a4.32,4.32,0,0,0-.94-.17h-.51a1.94,1.94,0,0,0-.49.05.6.6,0,0,0-.44.4.55.55,0,0,0,.12.39,1.32,1.32,0,0,0,.55.47,1.68,1.68,0,0,0,.94.14c.15,0,.38-.1.4-.28s-.2-.22-.32-.2h-.32l-.1,0s-.08,0,0,0l-.09,0a.56.56,0,0,1-.15-.1s-.06-.05,0,0l-.07-.07a.59.59,0,0,1-.17-.26s0,0,0,0h0s0,0,0,0a.11.11,0,0,1-.07.08l-.08,0c-.05,0-.06,0,0,0h.5a3.41,3.41,0,0,1,.46.05h.08l.09,0,.26.06-.15-.18a.76.76,0,0,1,0,.11.14.14,0,0,1,0,.06s0,0,0,0a2,2,0,0,1-.1.21,1,1,0,0,1-.12.19l0,.05s0,0,0,0l-.08.09a1.06,1.06,0,0,1-.15.15l0,0s0,0,0,0l-.09.07-.09.07-.06,0s-.06,0,0,0l0,0-.05,0-.11.05c-.12,0-.29.21-.18.34s.35.09.48,0Z" transform="translate(-333.59 -170.01)"/><path d="M368.05,252.56a3.37,3.37,0,0,0,.36-2,3.12,3.12,0,0,0-.28-1c-.14-.28-.29-.6-.62-.67a.82.82,0,0,0-.91.49,1,1,0,0,0,.07.82,3.32,3.32,0,0,0,1.46,1.23c.4.23.82.44,1.21.7.23.14.65.47.49.79s.56.29.68,0c.28-.55-.26-1-.69-1.27-.59-.34-1.21-.64-1.77-1-.38-.26-.85-.68-.77-1.2,0-.05.06-.11.06-.15v0l-.24,0,0,0c.07.12.17.22.24.35a3.38,3.38,0,0,1,.28.83,3,3,0,0,1-.3,1.94c-.17.33.56.29.69.05Z" transform="translate(-333.59 -170.01)"/><path d="M372.6,253.08a2.82,2.82,0,0,0,1.36-.39,1.28,1.28,0,0,0,.62-1c0-.72-.75-1.05-1-1.64-.07-.14-.29-.11-.41-.08s-.38.14-.31.28a2.36,2.36,0,0,0,.53.69,1.77,1.77,0,0,1,.47.68.81.81,0,0,1-.27.79,1.35,1.35,0,0,1-.85.25c-.13,0-.39.09-.42.24s.22.15.31.15Z" transform="translate(-333.59 -170.01)"/><path d="M373.53,251.25a22.54,22.54,0,0,1,.79,2.66c.08.35.8.16.72-.19a24.55,24.55,0,0,0-.78-2.66.35.35,0,0,0-.43-.17c-.14,0-.36.19-.3.36Z" transform="translate(-333.59 -170.01)"/><path d="M379.1,253.36a4.42,4.42,0,0,1,.71-2.47c.09-.14-.08-.22-.2-.22a.59.59,0,0,0-.48.2,4.71,4.71,0,0,0-.75,2.68c0,.06.1.09.14.1a.61.61,0,0,0,.27,0c.14,0,.32-.12.31-.28Z" transform="translate(-333.59 -170.01)"/><path d="M380.23,249a1.85,1.85,0,0,1,.75,1.08,1.66,1.66,0,0,1,0,.7c0,.25-.13.49-.18.73a1,1,0,0,0,.07.69,1.45,1.45,0,0,0,.55.49,6.52,6.52,0,0,0,1.52.75c.25.09.84-.27.43-.42a6.1,6.1,0,0,1-1.48-.76.74.74,0,0,1-.39-.58,3.24,3.24,0,0,1,.16-.75,2.13,2.13,0,0,0-.9-2.3c-.22-.15-.88.16-.57.37Z" transform="translate(-333.59 -170.01)"/><path d="M376.37,251l.38.47a.31.31,0,0,0,.2.11.38.38,0,0,0,.15,0,.37.37,0,0,0,.14,0,.39.39,0,0,0,.18-.18.2.2,0,0,0,0-.21l-.38-.47a.31.31,0,0,0-.2-.11h-.15a.34.34,0,0,0-.14.05.35.35,0,0,0-.18.18.2.2,0,0,0,0,.21Z" transform="translate(-333.59 -170.01)"/><path d="M468.66,248.27a3.85,3.85,0,0,1,.87,2.59,13.14,13.14,0,0,1-.11,3.07,2.79,2.79,0,0,1-.24.9,1.52,1.52,0,0,1-.7.58,5.63,5.63,0,0,1-1.16.39,12.21,12.21,0,0,1-1.43.23,11.48,11.48,0,0,1-1.44.08,4.35,4.35,0,0,1-.52,0l-.25,0c-.14,0,0,0-.1,0a1.35,1.35,0,0,0-1,.16c-.15.08-.49.38-.15.48a7.44,7.44,0,0,0,2.62.11,13.4,13.4,0,0,0,3.65-.75c.83-.32,1.81-.82,2.06-1.74a11,11,0,0,0,.27-3.13c0-1.09-.1-2.63-1-3.42-.34-.3-1.68.25-1.36.53Z" transform="translate(-333.59 -170.01)"/><path d="M461.49,256l-29.79-.39-14.64-.2-7.45-.09A30.23,30.23,0,0,1,403,255c-2.17-.52-2.69-2-3-4a10.35,10.35,0,0,1,0-3.51c.51-2.18,5.2-1.22,6.82-1.19,9.76.24,19.54.12,29.31.18l16.68.1c4.71,0,9.89-.62,14.43,1,.38.13,1.69-.46,1.17-.64-4-1.4-8.45-1-12.65-1-5.27,0-10.54-.06-15.8-.09-10.82-.07-21.65,0-32.46-.2-2.45-.05-5.3-.57-7.59.6a2.31,2.31,0,0,0-1.39,2.15,17.55,17.55,0,0,0,.28,4.52c.77,3.88,6.58,3.12,9.42,3.16l16.14.21,36.49.49c.47,0,1.56-.7.59-.72Z" transform="translate(-333.59 -170.01)"/><path d="M423.16,256.64a1.19,1.19,0,0,0,0,1.69,3.43,3.43,0,0,0,2.48.6h8c2.58,0,5.16,0,7.74,0,1.52,0,3.7-.34,4.18-2.07.08-.3-1.33-.12-1.43.25-.51,1.84-3.54,1.23-5,1.23H428.26a23.33,23.33,0,0,1-2.51,0c-.74-.07-2.08-.85-1.28-1.77.29-.34-1.08-.17-1.31.1Z" transform="translate(-333.59 -170.01)"/><path d="M423.82,245.51c-.17-.76,2.37-.55,2.72-.55H442c.58,0,2.37-.27,2.71.23s1.76,0,1.33-.64a1.85,1.85,0,0,0-1.61-.68c-1.21,0-2.43,0-3.63,0H425.56c-1.25,0-3.61.17-3.19,2,.16.69,1.61.32,1.45-.38Z" transform="translate(-333.59 -170.01)"/><path d="M420.35,228q9.6-.2,19.19-.06c.3,0,.83-.09.95-.43s-.09-.53-.42-.53q-9.78-.15-19.56.06c-.79,0-1.15,1-.16,1Z" transform="translate(-333.59 -170.01)"/><path d="M445.8,227.9a23.69,23.69,0,0,1,3.95-.06,1,1,0,0,0,.95-.43c.16-.31-.14-.52-.43-.54a27.12,27.12,0,0,0-4.32.07c-.29,0-.76.2-.8.55s.4.43.65.41Z" transform="translate(-333.59 -170.01)"/><path d="M411.26,228.08a23.72,23.72,0,0,1,3.95-.06,1,1,0,0,0,1-.42c.17-.31-.14-.52-.42-.54a26,26,0,0,0-4.32.06c-.3,0-.76.21-.81.55s.4.44.65.41Z" transform="translate(-333.59 -170.01)"/><path d="M451.53,236.18c-1.15,4-5.79,4-9.19,4l-11.11,0-11.11,0c-2.72,0-5.64.28-8.31-.27a2.62,2.62,0,0,1-2.43-2.22c-.22-1.33-.05-2.77-.17-4.13a21.53,21.53,0,0,1,.35-5.43c.13-.88.11-1.6,1.13-1.75a29,29,0,0,1,3.23,0l22.36-.28,6.46-.08a32.93,32.93,0,0,1,5.79.06c4,.65,3.94,5,3.59,8.13-.06.6,1.4.34,1.46-.17.28-2.62.49-6.07-1.87-7.85a7.63,7.63,0,0,0-4.73-1.07c-2.23,0-4.45,0-6.67.08l-27.07.34c-1.31,0-3.35-.34-4.39.71s-1,3.31-1.08,4.63c-.17,1.89.13,3.73.1,5.62,0,1.26,0,2.62,1.06,3.47,2,1.55,5.48,1.12,7.8,1.11,4.4,0,8.8,0,13.2,0,4.85,0,9.74.2,14.59,0,3.39-.15,7.41-1.34,8.46-5,.15-.54-1.31-.34-1.45.17Z" transform="translate(-333.59 -170.01)"/><path d="M458.94,233.13a23.41,23.41,0,0,1,.7,2.3.92.92,0,0,1-.18.77.28.28,0,0,1-.12.08.71.71,0,0,1-.3,0c-1.51-.21-1.57-2.53-1.62-3.68s0-3,1.35-3.15,2.55,1.08,3,2.26a9.65,9.65,0,0,1,.48,2.83,8.93,8.93,0,0,1,0,1.37,2.66,2.66,0,0,1-.2.56c0,.05,0,0,0,0a.9.9,0,0,0-1,.07c-.24.19-.38.6-.06.8a1.81,1.81,0,0,0,2.66-1.19,5.77,5.77,0,0,0,.06-1.66,16.6,16.6,0,0,0-.16-1.73,5.87,5.87,0,0,0-1.24-3.06,4.25,4.25,0,0,0-2.51-1.38,3.26,3.26,0,0,0-2.81.85,3.91,3.91,0,0,0-1,2.68,11.78,11.78,0,0,0,.28,3.13,3,3,0,0,0,1.89,2.29,2.3,2.3,0,0,0,2.9-1.16c.42-1.15-.38-2.31-.63-3.4-.16-.71-1.61-.33-1.44.39Z" transform="translate(-333.59 -170.01)"/><path d="M403.09,253.32h14c.29,0,.81-.09,1-.39s-.12-.41-.39-.41h-14c-.29,0-.81.1-1,.39s.12.41.39.41Z" transform="translate(-333.59 -170.01)"/><path d="M411,237.54c1.51,0,3,0,4.52,0,.29,0,.76-.23.81-.55s-.41-.42-.66-.42c-1.33,0-2.76,0-4.15,0a1,1,0,0,0-.94.43c-.16.3.13.53.42.54Z" transform="translate(-333.59 -170.01)"/><path d="M445.51,237.54c1.51,0,3,0,4.52,0,.3,0,.76-.23.81-.55s-.4-.42-.65-.42c-1.34,0-2.77,0-4.15,0a1,1,0,0,0-1,.43c-.16.3.14.53.42.54Z" transform="translate(-333.59 -170.01)"/><path d="M438.79,237.54c1.51,0,3,0,4.52,0,.3,0,.76-.23.81-.55s-.4-.42-.65-.42c-1.34,0-2.77,0-4.15,0a1,1,0,0,0-.95.43c-.16.3.14.53.42.54Z" transform="translate(-333.59 -170.01)"/><path d="M425.45,237.54c1.51,0,3,0,4.52,0,.3,0,.76-.23.81-.55s-.41-.42-.66-.42c-1.33,0-2.76,0-4.15,0a1,1,0,0,0-.94.43c-.16.3.13.53.42.54Z" transform="translate(-333.59 -170.01)"/><path d="M418.48,237.54c1.51,0,3,0,4.52,0,.3,0,.77-.23.81-.55s-.4-.42-.65-.42c-1.34,0-2.77,0-4.15,0a1,1,0,0,0-.95.43c-.16.3.14.53.42.54Z" transform="translate(-333.59 -170.01)"/><path d="M432.27,237.54c1.5,0,3,0,4.52,0,.29,0,.76-.23.8-.55s-.4-.42-.65-.42c-1.34,0-2.77,0-4.15,0a1,1,0,0,0-1,.43c-.15.3.14.53.43.54Z" transform="translate(-333.59 -170.01)"/><path d="M411,234.37c1.51,0,3,0,4.52,0,.29,0,.76-.22.81-.55s-.41-.41-.66-.41c-1.33,0-2.76,0-4.15,0a1,1,0,0,0-.94.42c-.16.3.13.54.42.54Z" transform="translate(-333.59 -170.01)"/><path d="M445.51,234.38c1.51,0,3,0,4.52,0,.3,0,.76-.22.81-.55s-.4-.41-.65-.41c-1.34,0-2.77,0-4.15,0a1,1,0,0,0-1,.42c-.16.3.14.54.42.54Z" transform="translate(-333.59 -170.01)"/><path d="M438.79,234.37c1.51,0,3,0,4.52,0,.3,0,.76-.22.81-.55s-.4-.41-.65-.41c-1.34,0-2.77,0-4.15,0a1,1,0,0,0-.95.42c-.16.3.14.54.42.54Z" transform="translate(-333.59 -170.01)"/><path d="M425.45,234.37c1.51,0,3,0,4.52,0,.3,0,.76-.22.81-.55s-.41-.41-.66-.41c-1.33,0-2.76,0-4.15,0a1,1,0,0,0-.94.42c-.16.3.13.54.42.54Z" transform="translate(-333.59 -170.01)"/><path d="M418.48,234.37c1.51,0,3,0,4.52,0,.3,0,.77-.22.81-.55s-.4-.41-.65-.41c-1.34,0-2.77,0-4.15,0a1,1,0,0,0-.95.42c-.16.3.14.54.42.54Z" transform="translate(-333.59 -170.01)"/><path d="M432.27,234.37c1.5,0,3,0,4.52,0,.29,0,.76-.22.8-.55s-.4-.41-.65-.41c-1.34,0-2.77,0-4.15,0a1,1,0,0,0-1,.42c-.15.3.14.54.43.54Z" transform="translate(-333.59 -170.01)"/><path d="M411,231.2c1.51,0,3,0,4.52,0,.29,0,.76-.23.81-.55s-.41-.42-.66-.42c-1.33,0-2.76,0-4.15,0a1,1,0,0,0-.94.43c-.16.3.13.53.42.53Z" transform="translate(-333.59 -170.01)"/><path d="M445.51,231.2c1.51,0,3,0,4.52,0,.3,0,.76-.23.81-.55s-.4-.42-.65-.42c-1.34,0-2.77,0-4.15,0a1,1,0,0,0-1,.43c-.16.3.14.53.42.53Z" transform="translate(-333.59 -170.01)"/><path d="M438.79,231.2c1.51,0,3,0,4.52,0,.3,0,.76-.23.81-.55s-.4-.42-.65-.42c-1.34,0-2.77,0-4.15,0a1,1,0,0,0-.95.43c-.16.3.14.53.42.53Z" transform="translate(-333.59 -170.01)"/><path d="M425.45,231.2c1.51,0,3,0,4.52,0,.3,0,.76-.23.81-.55s-.41-.42-.66-.42c-1.33,0-2.76,0-4.15,0a1,1,0,0,0-.94.43c-.16.3.13.53.42.53Z" transform="translate(-333.59 -170.01)"/><path d="M418.48,231.2c1.51,0,3,0,4.52,0,.3,0,.77-.23.81-.55s-.4-.42-.65-.42c-1.34,0-2.77,0-4.15,0a1,1,0,0,0-.95.43c-.16.3.14.53.42.53Z" transform="translate(-333.59 -170.01)"/><path d="M432.27,231.2c1.5,0,3,0,4.52,0,.29,0,.76-.23.8-.55s-.4-.42-.65-.42c-1.34,0-2.77,0-4.15,0a1,1,0,0,0-1,.43c-.15.3.14.53.43.53Z" transform="translate(-333.59 -170.01)"/></svg>