<svg id="круг_стол" data-name="круг стол" xmlns="http://www.w3.org/2000/svg" viewBox="0 0 236.33 231.78"><path d="M132.09,402.39q12.21.24,24.43-.08,6-.17,12-.47c1.15-.06,3.05.2,4-.59s.53-2.58.52-3.57c0-3.88-.1-7.76-.3-11.63-.11-1.93-.25-3.85-.44-5.78-.17-1.75-.13-3.94-.82-5.59-.52-1.26-2.07-1.77-3.3-2.08a18.4,18.4,0,0,0-4.91-.41c-3.89.08-7.78.24-11.68.35l-11.81.36c-2,.06-3.94.09-5.91.18a4.93,4.93,0,0,0-3.2,1c-2.24,2-2,6-1.95,8.72.1,4.05.24,8.1.36,12.15l.07,2.44a11.37,11.37,0,0,0,.08,2.92c.43,1.23.58.35-.07.59a6.83,6.83,0,0,1-.79.11,5,5,0,0,0-1.56.61,6,6,0,0,0-2.34,6.86,6.48,6.48,0,0,0,5.89,4.52,111.65,111.65,0,0,0,11.42-.21q13.44-.43,26.87-1.43c2-.14,4.21,0,6.09-.61a3.86,3.86,0,0,0,2.42-2.54c.83-2.22,1.62-7.72-2.24-7.43-.45,0-1.56.76-.61.69,1.65-.13,2.17,2.13,2.16,3.35a8.78,8.78,0,0,1-1.35,4.82c-1,1.18-4,.9-5.37,1-1.74.13-3.48.26-5.22.37q-10.32.69-20.66,1.05-5,.16-10,.27c-1.61,0-3.36.19-4.86-.52a6.19,6.19,0,0,1-2.88-3.05c-1.16-2.59-.45-6.76,2.83-7.16.54-.06,1.33-.09,1.62-.66a4.13,4.13,0,0,0,0-1.75l-.08-2.68-.3-10.24c-.09-3.15-.52-6.58.35-9.65a5.85,5.85,0,0,1,.86-2c.71-.93,1.74-.86,2.77-.89l5.41-.16,10.34-.31,9.84-.3c1.59,0,3.2-.15,4.78-.07s3.75.32,4.93,1.47c1,1,.93,3.06,1.09,4.38.19,1.68.35,3.36.47,5.05.24,3.3.35,6.6.41,9.91,0,1.94.09,3.88.08,5.82a4.32,4.32,0,0,1,0,1c-.19.61-.69.52-1.25.55l-2.74.14q-5.73.27-11.47.42-11.72.3-23.43.06c-.46,0-1.57.66-.6.68Z" transform="translate(-33.07 -181.3)"/><path d="M83,288.36a9.91,9.91,0,0,1,.83-4.3c.36-.74.89-1.38,1.3-2.1a5.59,5.59,0,0,0,.71-2.68,19.12,19.12,0,0,1,.93-5.57c1.27-3.71,3.51-7,5.67-10.21s4.34-6.39,6.66-9.48c4.62-6.18,9.83-12.22,16.18-16.69a16.94,16.94,0,0,1,5.75-2.74c1.87-.45,3.72-.8,5.54-1.43a85.75,85.75,0,0,1,11.49-3.08c14.88-2.89,30.87-1.76,44.4,5.48a83.94,83.94,0,0,1,10.28,6.86,48.21,48.21,0,0,1,4.4,3.53,30.32,30.32,0,0,1,3.55,4.36c2.39,3.25,5,6.3,7.42,9.54,2.28,3.07,4.81,6.21,6.35,9.74,1.25,2.87,1.58,6.2,2.29,9.24.6,2.58,1.29,5.15,1.74,7.76a41.93,41.93,0,0,1,.74,6.31,59.82,59.82,0,0,1-1.28,11.92,110.21,110.21,0,0,1-2.39,11.39A67.06,67.06,0,0,1,211,327.36,78.61,78.61,0,0,1,199,345a52.33,52.33,0,0,1-17.21,12.55c-3.7,1.66-7.41,3.28-11.24,4.61a72.07,72.07,0,0,1-12,2.81c-3.93.63-8,1.29-12,.7-1.53-.23-3-.74-4.5-1.09s-3-.65-4.45-1c-3.22-.69-6.24-1.75-9.4-2.66a53.46,53.46,0,0,1-5.51-1.76,37.32,37.32,0,0,1-5.55-2.95c-5.46-3.42-10.9-7-15.33-11.76a63.27,63.27,0,0,1-10.23-15A84.64,84.64,0,0,1,82.9,296a62.88,62.88,0,0,1,.09-7.52c0-.48-1.41-.18-1.44.22-.84,11.47,1.38,23.28,5.45,34,4.36,11.44,11.34,22.45,21.66,29.37,3.28,2.2,6.51,4.55,10,6.42s7.54,2.7,11.38,4.09a65,65,0,0,0,8.82,2.22c3.25.69,6.36,1.76,9.71,1.83a65,65,0,0,0,11.62-1.25,64.77,64.77,0,0,0,11.79-3c7.08-2.54,14.34-5.56,20.4-10.08a63.48,63.48,0,0,0,14.52-15.62,75.52,75.52,0,0,0,10.22-21.06,115.69,115.69,0,0,0,2.42-11.82,55,55,0,0,0,1.12-11.86c-.2-5-1.67-10-2.79-14.84-.77-3.34-1.19-6.64-2.89-9.68a79,79,0,0,0-6.64-9.51c-2.6-3.38-5.23-6.72-7.78-10.14-2.33-3.11-5.77-5.33-8.88-7.59a61.08,61.08,0,0,0-21.32-10.24,71,71,0,0,0-22.74-1.72,84.88,84.88,0,0,0-11.21,1.66c-4,.85-7.75,2.19-11.64,3.32-1.84.53-3.76.75-5.57,1.36a19.64,19.64,0,0,0-4.87,2.59,58.23,58.23,0,0,0-8.73,7.64c-5.6,5.83-10.24,12.49-14.73,19.19-2.12,3.16-4.3,6.39-5.54,10a18.66,18.66,0,0,0-.94,5.44,5.76,5.76,0,0,1-.88,3.11,15.36,15.36,0,0,0-1.26,2.1,10.8,10.8,0,0,0-.7,4.17c0,.33,1.45.1,1.45-.39Z" transform="translate(-33.07 -181.3)"/><path d="M169.94,192q-12.21-.21-24.43.14-6,.18-12,.5c-1.17.06-3-.19-4,.6s-.52,2.6-.51,3.57c.05,3.88.12,7.75.33,11.62.11,1.93.25,3.86.45,5.78.18,1.76.15,4,.83,5.59.53,1.26,2.09,1.77,3.31,2.08a18.81,18.81,0,0,0,4.91.39c3.9-.09,7.79-.25,11.68-.38l11.81-.38c2-.07,3.94-.1,5.91-.2a4.88,4.88,0,0,0,3.19-1c2.24-2,2-6,1.94-8.73-.11-4.05-.26-8.1-.39-12.15L172.9,197a11.44,11.44,0,0,0-.09-2.93c-.43-1.23-.58-.35.07-.6.19-.07.59,0,.79-.1a4.81,4.81,0,0,0,1.56-.62,5.94,5.94,0,0,0,2.33-6.86,6.5,6.5,0,0,0-5.91-4.51,111.42,111.42,0,0,0-11.41.24q-13.45.47-26.87,1.49c-2,.15-4.21,0-6.09.63a3.88,3.88,0,0,0-2.42,2.55c-.82,2.22-1.6,7.72,2.27,7.42.44,0,1.55-.76.6-.69-1.64.13-2.17-2.12-2.17-3.34a8.86,8.86,0,0,1,1.34-4.82c.95-1.19,4-.92,5.37-1l5.22-.38q10.32-.71,20.65-1.09c3.32-.13,6.64-.22,10-.3,1.61,0,3.37-.2,4.87.51a6.21,6.21,0,0,1,2.88,3c1.17,2.59.48,6.77-2.81,7.17-.54.07-1.32.09-1.61.67a4.07,4.07,0,0,0-.05,1.74l.09,2.68.33,10.24c.1,3.16.54,6.58-.32,9.65a6,6,0,0,1-.86,2c-.71.93-1.74.86-2.77.89l-5.41.18-10.34.34-9.84.32c-1.59,0-3.19.16-4.78.08s-3.75-.31-4.93-1.46c-1-1-.94-3.06-1.1-4.38-.2-1.68-.36-3.36-.49-5-.24-3.3-.36-6.61-.43-9.92,0-1.93-.09-3.87-.09-5.81a3.85,3.85,0,0,1,0-1c.18-.62.68-.53,1.24-.56l2.74-.15q5.73-.28,11.47-.44,11.72-.33,23.43-.12c.46,0,1.57-.67.6-.68Z" transform="translate(-33.07 -181.3)"/><path d="M258.76,308.46q.06-12.09-.44-24.18-.26-6.11-.65-12.2c-.07-1.08.29-3.1-1-3.56a5,5,0,0,0-1.69-.09l-3.39.08c-3.87.11-7.75.26-11.61.57-1.66.14-3.33.3-5,.51a17.39,17.39,0,0,0-5.18,1c-2.6,1.22-2.59,5.3-2.52,7.74.1,3.87.33,7.74.51,11.6l.53,11.81.24,5.41c.08,1.69.09,3.1,1.71,4,2.78,1.56,6.35,1.19,9.4,1.06l11.7-.52,2.93-.13c.31,0,.65-.06,1,0l.49,0q.87,0,.72.63a6.32,6.32,0,0,0,.46,1.78,4.66,4.66,0,0,0,1.43,1.5,7.11,7.11,0,0,0,7,.28,6.69,6.69,0,0,0,3.93-6.22c.08-3.87-.25-7.8-.44-11.67q-.65-13.27-1.83-26.52c-.08-1-.17-2-.27-2.95a5.75,5.75,0,0,0-.55-2.66c-.83-1.31-2.75-1.68-4.16-1.95-2-.38-6.68-.14-6.4,3,0,.36,1.5.07,1.45-.39-.23-2.54,3.2-2.12,4.77-1.74s3,1,3.31,2.76c.49,3.2.6,6.52.87,9.74q.81,10.07,1.32,20.15.26,5.16.43,10.32c.11,3.12,0,6.31-3.22,7.82-2.48,1.16-6.48-.23-6.68-3.3-.08-1.18-.36-1.27-1.57-1.23-1.71.06-3.41.15-5.12.23l-10,.44c-3.12.14-6.82.69-9.67-.89-1.39-.77-1.48-1.9-1.55-3.34l-.24-5.41-.45-10.09-.46-10.09c-.13-3-.6-6.38.61-9.26a2.44,2.44,0,0,1,2.14-1.7c.72-.11,1.43-.22,2.15-.31,1.85-.25,3.72-.44,5.58-.6,3.3-.27,6.61-.41,9.91-.52a39.9,39.9,0,0,1,5.57-.14c1.43.16,1.18,1.22,1.26,2.37.06.92.12,1.83.17,2.74q.36,5.73.58,11.46.46,11.58.4,23.18c0,.32,1.45.09,1.45-.39Z" transform="translate(-33.07 -181.3)"/><path d="M43.76,278.8q-.24,12,.07,23.93c.1,4,.26,8,.45,12a24.74,24.74,0,0,0,.16,3c.1.58.22.86.78,1.08a5,5,0,0,0,1.69.12l2.91,0c3.87-.05,7.75-.13,11.61-.38,1.83-.11,3.66-.26,5.48-.46a21.33,21.33,0,0,0,4.84-.76c2.79-1,3-4.92,3-7.42,0-3.85-.21-7.7-.33-11.54l-.35-11.82-.18-5.9c-.05-1.5,0-2.91-1.33-3.84-2.58-1.78-6.26-1.48-9.22-1.4l-11.71.35-2.92.08a12.11,12.11,0,0,1-1.47.05c-.6-.06-1,0-1.2-.63a8.16,8.16,0,0,0-.28-1.51,4.5,4.5,0,0,0-1.28-1.59,7,7,0,0,0-7.13-.65,6.65,6.65,0,0,0-4.17,5.79c-.26,3.87.11,7.88.23,11.75q.45,13.45,1.45,26.88c.08,1.07.17,2.15.25,3.23a5.43,5.43,0,0,0,.49,2.43c.82,1.32,2.74,1.72,4.14,2,2.05.41,6.67.22,6.43-2.89,0-.36-1.48-.08-1.45.38.2,2.53-3.25,2.06-4.8,1.66s-3-1-3.26-2.82c-.46-3.24-.52-6.6-.73-9.86q-.67-10.2-1-20.41c-.12-3.48-.22-7-.28-10.46-.06-3,.36-6.14,3.59-7.38a4.69,4.69,0,0,1,6.38,3.83c.07,1.12.84,1,1.81.93l5.12-.15,10-.3c3.06-.09,7-.62,9.68,1.2,1.3.88,1.2,2.3,1.24,3.71l.15,5.16.31,10.1.29,9.84c.1,3.07.58,6.6-.83,9.45A2.56,2.56,0,0,1,70,317c-.8.12-1.6.22-2.39.31-1.7.19-3.41.33-5.11.45-3.39.22-6.78.32-10.16.38-1.77,0-3.57.15-5.33.06-1.41-.07-1.17-1.34-1.22-2.4l-.15-3c-.18-3.82-.31-7.64-.41-11.46q-.27-11.48,0-22.94c0-.32-1.44-.09-1.45.39Z" transform="translate(-33.07 -181.3)"/><path d="M245.62,241.62q-7.74-12.06-16.12-23.68-2.12-2.91-4.26-5.81c-.93-1.25-1.82-3.45-3.67-2.95a6.59,6.59,0,0,0-1.91,1l-3.07,2.11c-1.91,1.32-3.82,2.66-5.7,4s-3.73,2.78-5.53,4.24a34.63,34.63,0,0,0-4.83,4.21c-1.24,1.48-.48,3.63.26,5.19a34,34,0,0,0,3.24,5l8.59,12,4.3,6,2,2.8a8.51,8.51,0,0,0,2.08,2.49c1.48.89,3.64.24,5.11-.33a29.62,29.62,0,0,0,6-3.65l6.55-4.68,3.37-2.41a32.74,32.74,0,0,1,3.8-2.65l-.89.19c.29,0,.7.86.93,1.09a3.64,3.64,0,0,0,1,.68,5.66,5.66,0,0,0,2.73.4,7.28,7.28,0,0,0,4.87-2.38,6.52,6.52,0,0,0,1.52-5.92,10,10,0,0,0-1.53-2.88c-.93-1.37-1.89-2.71-2.84-4.06q-5.41-7.66-11-15.16-2.82-3.73-5.69-7.45-1.4-1.81-2.81-3.61a24.94,24.94,0,0,0-2.9-3.58c-2.69-2.31-12.18,1.93-9.28,5.6.25.32,1.63-.16,1.35-.52-1.11-1.41.32-3.13,1.52-3.85,1.56-.94,4-1.91,5.4-.34,2.23,2.5,4.2,5.31,6.25,8q6.15,8,12.07,16.19,3,4.09,5.84,8.23c1.69,2.41,3.15,4.74,1.89,7.72-1.07,2.56-4.63,4.79-7,2.44-.69-.66-.71-1.38-1.81-1.2s-2.55,1.57-3.52,2.27l-8.54,6.09c-2.67,1.91-5.55,4.57-8.8,5.37a2.68,2.68,0,0,1-2.74-.53,11.57,11.57,0,0,1-1.24-1.64l-3.15-4.41-6-8.41-6-8.42c-1.68-2.35-4-5.08-4.06-8.14,0-1.75,2-3,3.2-4s2.62-2.17,4-3.21c2.57-2,5.22-3.9,7.89-5.76a49.57,49.57,0,0,1,4.61-3.17c.26-.14.43-.41.79-.32s.76,1,.95,1.23l1.72,2.31q3.36,4.53,6.62,9.14,6.78,9.57,13.11,19.44c.26.41,1.61-.13,1.44-.39Z" transform="translate(-33.07 -181.3)"/><path d="M223.62,380.84q6.94-9.63,13.46-19.59,3.12-4.75,6.12-9.6c.51-.81,1-1.63,1.52-2.45.35-.57.92-1.17.64-1.88s-1.13-1-1.63-1.36l-2.7-1.83c-3.09-2.07-6.21-4.11-9.4-6-1.59-1-3.21-1.88-4.84-2.75-1.37-.73-3-1.94-4.61-1.9-2.62.06-4.82,2.68-6.19,4.63-2.24,3.2-4.28,6.57-6.41,9.85l-6.42,9.92-3.22,5c-.89,1.39-1.79,2.58-1,4.26,1.28,2.84,4.37,4.57,6.86,6.19L216,379.9l2.46,1.6c.8.52,1.55.72,1.15,1.82a4.54,4.54,0,0,0-.37,3.3,6.37,6.37,0,0,0,6,4.33,7.58,7.58,0,0,0,6.57-3.26c2.31-3.16,4.35-6.55,6.46-9.84q7.05-11,13.64-22.21c.49-.83,1-1.66,1.46-2.49a7.53,7.53,0,0,0,1.33-2.8c.14-1.61-1.34-3.14-2.38-4.19-1.66-1.66-5.29-3.11-6.84-.44-.16.26,1.2.17,1.43-.23,1-1.77,3.71.81,4.46,1.63,1.07,1.17,2.3,2.59,1.68,4.27a30.21,30.21,0,0,1-2.45,4.27q-1.34,2.28-2.7,4.55-5.26,8.84-10.83,17.49-2.79,4.35-5.64,8.65a10,10,0,0,1-2.9,3.34,5.38,5.38,0,0,1-5.19-.18c-1.94-1.09-3.64-3.89-2.48-6.09.17-.31.62-.66.6-1.05,0-.59-.8-.86-1.22-1.13l-4.5-2.92-8.6-5.58c-2.36-1.53-5.15-3.1-6.56-5.64-.95-1.7-.26-2.85.7-4.33l2.95-4.55,5.62-8.68,5.62-8.68c.75-1.16,1.48-2.34,2.31-3.45s2-2.73,3.41-3.12c1-.28,1.88.37,2.7.78l2.37,1.25q2.24,1.23,4.42,2.55c2.79,1.68,5.52,3.46,8.23,5.27l2.31,1.56a13.5,13.5,0,0,1,2.25,1.53c.93,1,.15,1.67-.43,2.61l-1.52,2.45c-2,3.23-4.07,6.43-6.15,9.62q-6.33,9.63-13.07,19c-.32.45,1.1.28,1.33-.05Z" transform="translate(-33.07 -181.3)"/><path d="M58.19,362.79q10.59,9.94,21.7,19.31c1.84,1.55,3.68,3.08,5.54,4.6,1.19,1,2.36,2.53,4,1.85a4.88,4.88,0,0,0,1.66-1.44l2.47-2.79c1.53-1.75,3.06-3.51,4.55-5.29s2.94-3.6,4.34-5.45a35.3,35.3,0,0,0,3.64-5.24c.83-1.71-.5-3.64-1.56-4.94a35.61,35.61,0,0,0-4.68-4.34l-11.25-9.58L83,344.69l-2.63-2.23a7.15,7.15,0,0,0-2.33-1.64c-1.7-.53-3.68.53-5,1.47a27.28,27.28,0,0,0-4.86,4.92l-5.23,6.13-2.69,3.15A32.08,32.08,0,0,1,57.19,360l.86-.28c-.25,0-.76-.62-1-.77a3.75,3.75,0,0,0-1.17-.43,6,6,0,0,0-2.5.09,6.86,6.86,0,0,0-4.4,3.15,6.51,6.51,0,0,0-.2,6.33c1.27,2.24,3.82,3.89,5.73,5.54q7.09,6.11,14.38,12,3.63,3,7.32,5.86,1.78,1.43,3.59,2.82a37.81,37.81,0,0,0,3.73,2.84c2.11,1.23,4.66-.39,6.33-1.67,1.49-1.15,3.78-4,1.64-5.62-.35-.27-1.66.29-1.36.52,1.28,1,.65,2.8-.21,3.84a8.59,8.59,0,0,1-1.85,1.6c-1.18.8-2.38,1.38-3.71.45-2.8-2-5.44-4.22-8.13-6.34q-7.91-6.29-15.62-12.79-3.86-3.26-7.66-6.58c-2.24-1.95-4-4-3.28-7.22.63-2.61,3.78-5.75,6.47-3.55.61.5,1,.82,1.88.47,1.17-.49,2.11-2.16,2.92-3.1l6.65-7.8c2-2.38,4-5.17,6.56-7,1-.71,2.25-1.38,3.42-.63a16.33,16.33,0,0,1,1.64,1.35l4.13,3.51,8.06,6.87,7.87,6.7c2.12,1.81,5,3.89,5.61,6.77.35,1.56-1.12,3-1.95,4.2q-1.47,2.08-3.05,4.09c-2,2.63-4.2,5.18-6.39,7.69-1.18,1.35-2.36,2.68-3.55,4-.27.3-.6.9-1.1.85-.29,0-.86-.69-1.12-.9l-2.23-1.83q-4.45-3.66-8.82-7.42-8.73-7.53-17.12-15.43c-.31-.29-1.65.25-1.36.53Z" transform="translate(-33.07 -181.3)"/><path d="M88.25,209.94q-8.13,8.51-15.88,17.37-3.95,4.51-7.79,9.13c-.61.74-1.24,1.47-1.84,2.22-.37.47-.8.85-.63,1.49s.72.92,1.09,1.26c.8.73,1.62,1.46,2.43,2.18,2.88,2.59,5.8,5.15,8.82,7.58,1.44,1.16,2.91,2.3,4.41,3.39,1.18.86,2.55,2.19,4,2.44,2.61.43,5.33-2,7-3.77,2.59-2.75,5-5.71,7.45-8.57l8.06-9.31,3.54-4.1c1-1.18,2.33-2.3,2-4-.56-3.3-4.09-5.81-6.44-7.84l-8.85-7.66-2.21-1.92c-.24-.21-1-.67-1.11-1-.26-.68.13-.82.43-1.22a4.13,4.13,0,0,0,.59-3.16A6.32,6.32,0,0,0,88,199.55a7.61,7.61,0,0,0-6.6,2.2c-2.77,2.7-5.2,5.84-7.72,8.77q-8.62,10-16.83,20.4l-2.08,2.64a8.79,8.79,0,0,0-1.33,1.9c-.65,1.59.55,3.31,1.43,4.55a5.69,5.69,0,0,0,3.8,2.71,3.43,3.43,0,0,0,3.06-1.11c.33-.42-1.08-.26-1.33,0-1.16,1.48-3.45-1.18-4-2-.85-1.16-2.08-2.9-1.47-4.41A10.29,10.29,0,0,1,56.51,233c.5-.64,1-1.27,1.49-1.89q1.64-2.09,3.3-4.14,6.33-7.87,12.89-15.54,3.36-3.91,6.78-7.79c1-1.13,2-2.56,3.48-3.15a5.51,5.51,0,0,1,4.72.56c2,1.18,3.57,4,2.47,6.29-.41.86-1.43,1.16-.69,2.09A13.45,13.45,0,0,0,92.8,211L95,212.9l7.75,6.71c2.27,2,5,3.95,6.28,6.77a3.48,3.48,0,0,1,.4,2.4,5.32,5.32,0,0,1-1.23,1.78l-3.54,4.09-6.77,7.82-6.77,7.82c-.95,1.11-1.88,2.24-2.9,3.29s-3.17,3.24-4.85,2.59a19.11,19.11,0,0,1-3.91-2.68c-1.36-1-2.7-2.06-4-3.14-2.53-2-5-4.19-7.42-6.35a42.17,42.17,0,0,1-4.09-3.69c-.87-1,.4-2,1.06-2.81l1.84-2.22q3.56-4.23,7.19-8.39,7.58-8.67,15.55-17c.36-.37-1-.23-1.32.05Z" transform="translate(-33.07 -181.3)"/></svg>