<svg id="стол" xmlns="http://www.w3.org/2000/svg" viewBox="0 0 145.45 60.21"><path d="M17,66.52C28.92,63,41.63,64.26,53.85,64.8q19.75.86,39.53.91T132.67,65c1.15,0,2.26,0,3.4.08.92,0,1.77-.34,2.63-.35s1.74.46,2.61.52c1.16.07,2.13-.6,3.28-.66a39.47,39.47,0,0,1,4,.44,15.17,15.17,0,0,0,2.93-.23,9.5,9.5,0,0,1,3.79.18c.93.24,1.5.56,1.64,1.61a15.54,15.54,0,0,1-.06,2.36l-1.08,39.35-.14,5a47.44,47.44,0,0,1-.17,5.06c-.45,3.24-4,3.59-6.69,3.82-6.64.59-13.33.72-20,.72-13.07,0-26.13-.71-39.19-1.26L50.34,120l-19.94-.83-9.72-.41c-1.68-.07-3.18-.25-4-1.92a12.4,12.4,0,0,1-1-4.25c-.52-6.49-.47-13.07-.69-19.57l-.33-9.92c-.1-3-.34-6-.17-9a13.34,13.34,0,0,1,2.56-7.6c.36-.47-1.07-.33-1.33,0-3.62,4.7-2.71,11-2.52,16.52l.68,20.57c.11,3.27.07,6.59.39,9.85.25,2.52.89,5.4,3.73,5.92a30.64,30.64,0,0,0,4.28.26l5.48.23,10.22.43L79.65,122c13.73.58,27.45,1.31,41.19,1.57,6.77.14,13.55.12,20.32-.19a87,87,0,0,0,9.41-.69c2-.31,4.45-.87,5.71-2.6a5.5,5.5,0,0,0,.78-3.18c.06-1.83.1-3.65.15-5.48l.28-10.21.57-20.67.29-10.46.07-2.5a4.91,4.91,0,0,0-.12-2.09c-.46-1-1.88-1.21-2.83-1.38-2.2-.39-4.27.37-6.45.18a27.44,27.44,0,0,0-3.94-.43c-1.14,0-2.34.73-3.41.61a16.78,16.78,0,0,0-2.73-.48,6.51,6.51,0,0,0-1,.23,7.77,7.77,0,0,1-2.36.07c-3.07-.2-6.23.13-9.31.23q-10.18.31-20.39.42-20.77.21-41.53-.49c-6.71-.22-13.41-.58-20.11-.85a112.64,112.64,0,0,0-18.73.48,55,55,0,0,0-8.71,1.82c-.84.25-.69.89.17.64Z" transform="translate(-13.02 -63.41)"/></svg>