<svg id="чайник" xmlns="http://www.w3.org/2000/svg" viewBox="0 0 36.82 36.92"><path d="M403.7,18.65c-2.63,4.38-3.31,9.46-4.43,14.36-.57,2.5-1.4,4.89-2.2,7.31a15.46,15.46,0,0,0-1,7.66c.05.28,1.51,0,1.45-.39-.49-2.74.23-5.38,1.11-8a68.43,68.43,0,0,0,2.15-7.29c1.06-4.77,1.79-9.69,4.34-14,.09-.15-1.21-.1-1.43.26Z" transform="translate(-395.92 -17.38)"/><path d="M417.25,18.4a14.08,14.08,0,0,1,3.16,6c.72,2.36,1.3,4.77,2,7.14,1.61,5.56,1.7,11.41,2.16,17.15,0,.23,1.48,0,1.45-.39-.48-5.9-.61-11.85-2.28-17.56-1.24-4.27-1.83-9.53-5.1-12.82-.25-.25-1.56.29-1.37.48Z" transform="translate(-395.92 -17.38)"/><path d="M422,24.12c3.55,1,5.3,4.62,5.79,8a16.66,16.66,0,0,1,.08,5.32,4.64,4.64,0,0,1-1.21,2.33,2.7,2.7,0,0,0-.82,1.6c0,.33.71.21.73-.08.06-.87.79-1.38,1.27-2a4.92,4.92,0,0,0,.83-2.28,19.05,19.05,0,0,0-.25-5.64c-.61-3.37-2.54-6.66-6-7.68-.27-.08-.85.32-.43.44Z" transform="translate(-395.92 -17.38)"/><path d="M418.42,19.49c12.52-1.39,15,15.15,11.22,23.91-.84,2-2.24,4.23-4.44,4.79-.86.22-.71.83.16.61,5-1.25,6.78-7.27,7.23-11.75.56-5.44-.44-12.1-4.83-15.86a11.73,11.73,0,0,0-9.12-2.39c-.66.07-1.24.8-.22.69Z" transform="translate(-395.92 -17.38)"/><path d="M397.06,48.55a12.37,12.37,0,0,0,4.06.54c1.49.08,3,.15,4.48.2q4.56.15,9.14.12c.8,0,1.13-1,.15-1q-4.39,0-8.77-.12c-1.38,0-2.76-.1-4.13-.17a12.66,12.66,0,0,1-4.08-.5c-.57-.24-1.69.58-.85.93Z" transform="translate(-395.92 -17.38)"/><path d="M396.76,49.34c.73,1.87,1.69,3.94,3.87,4.36a26.91,26.91,0,0,0,4.49.2l4.94.12,9.65.23a5.51,5.51,0,0,0,3-.35c1.11-.66,1.75-2.33,2.4-3.39.32-.52-1.11-.35-1.34,0-.52.85-1.24,2.76-2.27,3a8.22,8.22,0,0,1-2,0l-2-.05-7.43-.18c-2.47-.06-4.95-.09-7.42-.18-2.66-.1-3.64-1.87-4.52-4.13-.18-.46-1.61,0-1.45.39Z" transform="translate(-395.92 -17.38)"/><path d="M404.36,19.18c2.7.05,5.41.15,8.11.16,1.86,0,4.08-.2,5.4-1.69.21-.25-.19-.26-.35-.26a1.62,1.62,0,0,0-1,.35c-1.15,1.31-3.13,1-4.7,1l-6.55-.14a1.7,1.7,0,0,0-1,.27c-.18.16-.23.33.09.34Z" transform="translate(-395.92 -17.38)"/><path d="M402.43,24a18.61,18.61,0,0,0-2.74-6.45l-.76.73a5.23,5.23,0,0,1,2.39.51,6.21,6.21,0,0,0,2.72.47c.27,0,.77-.19.82-.52s-.42-.37-.64-.35a5.79,5.79,0,0,1-2.4-.57,5.7,5.7,0,0,0-2.71-.41c-.28,0-1,.31-.76.73A17.79,17.79,0,0,1,401,24.39c.12.54,1.57.17,1.45-.39Z" transform="translate(-395.92 -17.38)"/><path d="M404.72,18.59c3.73-.22,7.45-.27,11.18-.17a1.7,1.7,0,0,0,1-.27c.19-.16.22-.33-.09-.34q-5.76-.16-11.5.17c-.26,0-.82.1-1,.35s.14.27.35.26Z" transform="translate(-395.92 -17.38)"/><path d="M415.57,22A89.05,89.05,0,0,1,419,46c0,.7,1.46.45,1.46-.14A90.08,90.08,0,0,0,417,21.57c-.18-.6-1.62-.21-1.45.39Z" transform="translate(-395.92 -17.38)"/></svg>