<svg id="туалет" xmlns="http://www.w3.org/2000/svg" viewBox="0 0 28.24 26.99"><path d="M448.92,111.46a2.49,2.49,0,0,1,.09-.37,1.6,1.6,0,0,1,.34-.61,2.73,2.73,0,0,1,.42-.48,1.52,1.52,0,0,1,.51-.17,1.69,1.69,0,0,1,1.24.23,2,2,0,0,1,.43.38,2.55,2.55,0,0,1,.42.61,2.26,2.26,0,0,1-.4,2.16,1.62,1.62,0,0,1-1,.55,1.84,1.84,0,0,1-1-.27,2.24,2.24,0,0,1-1-2c0-.24-.71-.09-.72.11a2.52,2.52,0,0,0,.21,1.21,2.2,2.2,0,0,0,.87,1,2.77,2.77,0,0,0,3-.24,2.4,2.4,0,0,0,.86-1.3,2.7,2.7,0,0,0,.09-.75,4.64,4.64,0,0,0-.11-.51,1.56,1.56,0,0,0-.36-.62,2.28,2.28,0,0,0-.59-.57,2.37,2.37,0,0,0-1.56-.31,5.34,5.34,0,0,0-.9.2,1.63,1.63,0,0,0-.78.53,4.11,4.11,0,0,0-.53.73,1.36,1.36,0,0,0-.12.39.67.67,0,0,0-.08.25c0,.24.7.09.72-.11Z" transform="translate(-442.76 -104.2)"/><path d="M460.32,111.46c0-.13.08-.24.1-.37a1.48,1.48,0,0,1,.34-.61,2.73,2.73,0,0,1,.42-.48,1.46,1.46,0,0,1,.5-.17,1.71,1.71,0,0,1,1.25.23,2,2,0,0,1,.43.38,2.55,2.55,0,0,1,.42.61,2.26,2.26,0,0,1-.4,2.16,1.62,1.62,0,0,1-1,.55,1.84,1.84,0,0,1-1-.27,2.24,2.24,0,0,1-1-2c0-.24-.7-.09-.72.11a2.66,2.66,0,0,0,.22,1.21,2.15,2.15,0,0,0,.87,1,2.77,2.77,0,0,0,3-.24,2.38,2.38,0,0,0,.85-1.3,2.12,2.12,0,0,0,.09-.75,3.06,3.06,0,0,0-.1-.51,1.56,1.56,0,0,0-.36-.62,2.18,2.18,0,0,0-2.16-.88,5.81,5.81,0,0,0-.9.2,1.65,1.65,0,0,0-.77.53,4.75,4.75,0,0,0-.54.73,1.74,1.74,0,0,0-.11.39.92.92,0,0,0-.09.25c0,.24.71.09.72-.11Z" transform="translate(-442.76 -104.2)"/><path d="M455.83,107.05v21.63c0,.2.73.07.73-.2V106.85c0-.2-.73-.07-.73.2Z" transform="translate(-442.76 -104.2)"/><path d="M463.92,126.46c-.25-3.17.93-6.16,1.44-9.25a12.47,12.47,0,0,0,.21-2.11c0-.25,0-.41-.22-.51a2.74,2.74,0,0,0-1,0l-5.18.16c-.06,0-.6.12-.52.25a22.47,22.47,0,0,1,1.6,2.88,16.84,16.84,0,0,1,.87,2.86,36.47,36.47,0,0,0,1.47,5.91c.08.19.79,0,.73-.19a36.36,36.36,0,0,1-1.48-5.92,15.64,15.64,0,0,0-.87-2.85,21.25,21.25,0,0,0-1.59-2.88l-.52.25,4.71-.14c.29,0,1.09-.18,1.27.16a2.64,2.64,0,0,1-.06,1,18.53,18.53,0,0,1-.37,2.35c-.56,2.71-1.45,5.39-1.23,8.18,0,.16.75,0,.73-.19Z" transform="translate(-442.76 -104.2)"/><path d="M449.84,114.62c.18,3.16-1.06,6.11-1.64,9.15a16.21,16.21,0,0,0-.27,2.08c0,.27-.07.49.2.61a2.6,2.6,0,0,0,.88,0l5.3,0c.06,0,.59-.12.51-.25a21.94,21.94,0,0,1-1.53-2.92,16.63,16.63,0,0,1-.79-2.84,36.7,36.7,0,0,0-1.34-6c-.07-.19-.79,0-.73.19a37.18,37.18,0,0,1,1.34,6,15.35,15.35,0,0,0,.8,2.84,21.94,21.94,0,0,0,1.53,2.92l.51-.25-4.82,0c-.36,0-1,.13-1.15-.3a4,4,0,0,1,.11-1.19,21.61,21.61,0,0,1,.4-2.13c.63-2.68,1.57-5.32,1.41-8.11,0-.15-.73,0-.72.19Z" transform="translate(-442.76 -104.2)"/><path d="M444.84,105q12,.54,24,.19l-.45-.22q1.17,12.83,1.16,25.7l1-.5q-6.31.13-12.63.16-3.09,0-6.18,0l-3.22,0a20.34,20.34,0,0,1-3.22,0c-.85-.17-1.11-.34-1.09-1.3,0-.5,0-1,0-1.49l.06-3.23.13-6.22.14-6.46.06-3c0-.9-.28-2.69.21-3.45l-.78.39-.26-.06c0,.6,1.44.3,1.45-.18,0-1.08-1.7-.54-2,.18a6.09,6.09,0,0,0-.07,1.81l0,2-.08,4c-.11,5.3-.23,10.61-.33,15.91,0,.69-.12,1.44.6,1.79a7.23,7.23,0,0,0,2.86.16q4,0,7.92.05,7.92,0,15.84-.17c.23,0,1-.13,1-.5q0-13-1.16-25.91c0-.17-.32-.22-.44-.21q-12,.35-24-.19c-.55,0-1.54.78-.56.82Z" transform="translate(-442.76 -104.2)"/></svg>