<svg id="аудиосистема" xmlns="http://www.w3.org/2000/svg" viewBox="0 0 144.24 15.94"><path d="M278.82,116l-24,.37c-3.72.06-7.48-.07-11.19.23a4.4,4.4,0,0,0-2.8.86c-.64.71-.33,2.15-.12,3a7.75,7.75,0,0,0,.81,1.92,6.11,6.11,0,0,0,1.6,2.17,2.78,2.78,0,0,0,1.38.13l3.49,0,12,0,23.41.08q47.33.14,94.64,0c1.65,0,5.36.45,6-1.62a19.07,19.07,0,0,0,.37-2.73,11.55,11.55,0,0,0,.33-2.47,1.18,1.18,0,0,0-1-1,13.71,13.71,0,0,0-2.56-.09c-4.62-.09-9.24-.14-13.85-.19q-22.67-.24-45.34-.41c-10.34-.09-20.68-.14-31-.26h-.62c-.56,0-1.54.79-.57.82,8.09.29,16.21.14,24.3.21q22.1.18,44.19.39,8.57.07,17.15.19l5.28.08,1.59,0a3.54,3.54,0,0,1,.46,0c.16,0,.27.08.11,0,.91.47.17,2.65,0,3.54a7.31,7.31,0,0,1-.31,2.22c-.38.59-2,.43-2.63.44-3.76.07-7.52,0-11.28,0l-22.41,0q-22.66,0-45.33,0-22.41,0-44.83-.14l-5.48,0-2.73,0h-1.25a7.79,7.79,0,0,1-2,0c-1.33-.49-2.24-2.9-2.49-4.15-.09-.45-.34-1.52-.09-1.89.4-.6,2.06-.43,2.66-.44,7.53-.18,15.06-.24,22.59-.36l11-.17c.54,0,1.54-.84.56-.82Z" transform="translate(-240.48 -108.91)"/><path d="M258.83,115c2.53-.63,4.61-2.37,6.81-3.68,3.15-1.89,7.23-1.43,10.79-1.53,7.91-.23,15.83-.3,23.75-.28,15.44,0,30.88.37,46.32.45l6.48,0a33.57,33.57,0,0,1,6.18.19,15.2,15.2,0,0,1,8.49,5.42c.24.28,1.6-.22,1.36-.5a16.18,16.18,0,0,0-7.22-5.12c-3.27-1.07-7-.6-10.37-.61-8.14,0-16.28-.12-24.42-.22-16-.21-32-.42-48,0-2.32.06-4.65.13-7,.22a17.5,17.5,0,0,0-5,.66c-3,1-5.29,3.75-8.38,4.52-.85.21-.73.69.13.48Z" transform="translate(-240.48 -108.91)"/></svg>